<svg width="50" height="50" fill="none" xmlns="http://www.w3.org/2000/svg" viewBox="0 0 50 50">
    <g id="html">
        <path d="M6 28L4 3H28L26 28L16 31L6 28Z" fill="#E44D26"/>
        <path d="M26 5H16V29.5L24 27L26 5Z" fill="#F16529"/>
        <path d="M9.5 17.5L8.5 8H24L23.5 11H11.5L12 14.5H23L22 24L16 26L10 24L9.5 19H12.5L13 21.5L16 22.5L19 21.5L19.5 17.5H9.5Z"
              fill="white"/>
    </g>

    <g id="css">
        <path d="M6 28L4 3H28L26 28L16 31L6 28Z" fill="#1172B8"/>
        <path d="M26 5H16V29.5L24 27L26 5Z" fill="#33AADD"/>
        <path d="M19.5 17.5H9.5L9 14L17 11.5H9L8.5 8.5H24L23.5 12L17 14.5H23L22 24L16 26L10 24L9.5 19H12.5L13 21.5L16 22.5L19 21.5L19.5 17.5Z"
              fill="white"/>
    </g>

    <g id="js"
       fill-rule="evenodd">
        <rect width="24" height="24" fill="#F1DC50"/>
        <path stroke="#333" stroke-width="2"
              d="M12,11 C12,15.749205 12,18.4158717 12,19 C12,19.8761925 11.4771235,21 10,21 C7.61461794,21 7.5,19 7.5,19 M20.7899648,13.51604 C20.1898831,12.5053467 19.3944074,12 18.4035378,12 C16.8563489,12 16,13 16,14 C16,15 16.5,16 18.5084196,16.5 C19.7864643,16.8181718 21,17.5 21,19 C21,20.5 19.6845401,21 18.5,21 C16.9861609,21 15.9861609,20.3333333 15.5,19"/>
    </g>

    <g id="ts">
        <symbol width="800px" height="800px" viewBox="0 0 32 32" xmlns="http://www.w3.org/2000/svg"/>
        <path d="M23.827,8.243A4.424,4.424,0,0,1,26.05,9.524a5.853,5.853,0,0,1,.852,1.143c.011.045-1.534,1.083-2.471,1.662-.034.023-.169-.124-.322-.35a2.014,2.014,0,0,0-1.67-1c-1.077-.074-1.771.49-1.766,1.433a1.3,1.3,0,0,0,.153.666c.237.49.677.784,2.059,1.383,2.544,1.095,3.636,1.817,4.31,2.843a5.158,5.158,0,0,1,.416,4.333,4.764,4.764,0,0,1-3.932,2.815,10.9,10.9,0,0,1-2.708-.028,6.531,6.531,0,0,1-3.616-1.884,6.278,6.278,0,0,1-.926-1.371,2.655,2.655,0,0,1,.327-.208c.158-.09.756-.434,1.32-.761L19.1,19.6l.214.312a4.771,4.771,0,0,0,1.35,1.292,3.3,3.3,0,0,0,3.458-.175,1.545,1.545,0,0,0,.2-1.974c-.276-.395-.84-.727-2.443-1.422a8.8,8.8,0,0,1-3.349-2.055,4.687,4.687,0,0,1-.976-1.777,7.116,7.116,0,0,1-.062-2.268,4.332,4.332,0,0,1,3.644-3.374A9,9,0,0,1,23.827,8.243ZM15.484,9.726l.011,1.454h-4.63V24.328H7.6V11.183H2.97V9.755A13.986,13.986,0,0,1,3.01,8.289c.017-.023,2.832-.034,6.245-.028l6.211.017Z"
              style="fill:#007acc"/>
    </g>

<!--    <g id="react">-->
<!--        <symbol width="800px" height="800px" viewBox="0 0 32 32" fill="none" xmlns="http://www.w3.org/2000/svg"/>-->
<!--        <path d="M18.6789 15.9759C18.6789 14.5415 17.4796 13.3785 16 13.3785C14.5206 13.3785 13.3211 14.5415 13.3211 15.9759C13.3211 17.4105 14.5206 18.5734 16 18.5734C17.4796 18.5734 18.6789 17.4105 18.6789 15.9759Z"-->
<!--              fill="#53C1DE"/>-->
<!--        <path fill-rule="evenodd" clip-rule="evenodd"-->
<!--              d="M24.7004 11.1537C25.2661 8.92478 25.9772 4.79148 23.4704 3.39016C20.9753 1.99495 17.7284 4.66843 16.0139 6.27318C14.3044 4.68442 10.9663 2.02237 8.46163 3.42814C5.96751 4.82803 6.73664 8.8928 7.3149 11.1357C4.98831 11.7764 1 13.1564 1 15.9759C1 18.7874 4.98416 20.2888 7.29698 20.9289C6.71658 23.1842 5.98596 27.1909 8.48327 28.5877C10.9973 29.9932 14.325 27.3945 16.0554 25.7722C17.7809 27.3864 20.9966 30.0021 23.4922 28.6014C25.9956 27.1963 25.3436 23.1184 24.7653 20.8625C27.0073 20.221 31 18.7523 31 15.9759C31 13.1835 26.9903 11.7923 24.7004 11.1537ZM24.4162 19.667C24.0365 18.5016 23.524 17.2623 22.8971 15.9821C23.4955 14.7321 23.9881 13.5088 24.3572 12.3509C26.0359 12.8228 29.7185 13.9013 29.7185 15.9759C29.7185 18.07 26.1846 19.1587 24.4162 19.667ZM22.85 27.526C20.988 28.571 18.2221 26.0696 16.9478 24.8809C17.7932 23.9844 18.638 22.9422 19.4625 21.7849C20.9129 21.6602 22.283 21.4562 23.5256 21.1777C23.9326 22.7734 24.7202 26.4763 22.85 27.526ZM9.12362 27.5111C7.26143 26.47 8.11258 22.8946 8.53957 21.2333C9.76834 21.4969 11.1286 21.6865 12.5824 21.8008C13.4123 22.9332 14.2816 23.9741 15.1576 24.8857C14.0753 25.9008 10.9945 28.557 9.12362 27.5111ZM2.28149 15.9759C2.28149 13.874 5.94207 12.8033 7.65904 12.3326C8.03451 13.5165 8.52695 14.7544 9.12123 16.0062C8.51925 17.2766 8.01977 18.5341 7.64085 19.732C6.00369 19.2776 2.28149 18.0791 2.28149 15.9759ZM9.1037 4.50354C10.9735 3.45416 13.8747 6.00983 15.1159 7.16013C14.2444 8.06754 13.3831 9.1006 12.5603 10.2265C11.1494 10.3533 9.79875 10.5569 8.55709 10.8297C8.09125 9.02071 7.23592 5.55179 9.1037 4.50354ZM20.3793 11.5771C21.3365 11.6942 22.2536 11.85 23.1147 12.0406C22.8562 12.844 22.534 13.6841 22.1545 14.5453C21.6044 13.5333 21.0139 12.5416 20.3793 11.5771ZM16.0143 8.0481C16.6054 8.66897 17.1974 9.3623 17.7798 10.1145C16.5985 10.0603 15.4153 10.0601 14.234 10.1137C14.8169 9.36848 15.414 8.67618 16.0143 8.0481ZM9.8565 14.5444C9.48329 13.6862 9.16398 12.8424 8.90322 12.0275C9.75918 11.8418 10.672 11.69 11.623 11.5748C10.9866 12.5372 10.3971 13.5285 9.8565 14.5444ZM11.6503 20.4657C10.6679 20.3594 9.74126 20.2153 8.88556 20.0347C9.15044 19.2055 9.47678 18.3435 9.85796 17.4668C10.406 18.4933 11.0045 19.4942 11.6503 20.4657ZM16.0498 23.9915C15.4424 23.356 14.8365 22.6531 14.2448 21.8971C15.4328 21.9423 16.6231 21.9424 17.811 21.891C17.2268 22.6608 16.6369 23.3647 16.0498 23.9915ZM22.1667 17.4222C22.5677 18.3084 22.9057 19.1657 23.1742 19.9809C22.3043 20.1734 21.3652 20.3284 20.3757 20.4435C21.015 19.4607 21.6149 18.4536 22.1667 17.4222ZM18.7473 20.5941C16.9301 20.72 15.1016 20.7186 13.2838 20.6044C12.2509 19.1415 11.3314 17.603 10.5377 16.0058C11.3276 14.4119 12.2404 12.8764 13.2684 11.4158C15.0875 11.2825 16.9178 11.2821 18.7369 11.4166C19.7561 12.8771 20.6675 14.4086 21.4757 15.9881C20.6771 17.5812 19.7595 19.1198 18.7473 20.5941ZM22.8303 4.4666C24.7006 5.51254 23.8681 9.22726 23.4595 10.8426C22.2149 10.5641 20.8633 10.3569 19.4483 10.2281C18.6239 9.09004 17.7698 8.05518 16.9124 7.15949C18.1695 5.98441 20.9781 3.43089 22.8303 4.4666Z"-->
<!--              fill="#53C1DE"/>-->
<!--        &lt;!&ndash;        </symbol>&ndash;&gt;-->
<!--    </g>-->
    <g id="react">
        <symbol width="71" height="64" viewBox="0 0 71 64" fill="none" xmlns="http://www.w3.org/2000/svg"/>
            <g clip-path="url(#clip0_1_481)">
                <path d="M35.6569 38.7725C39.3293 38.7725 42.3063 35.7404 42.3063 32C42.3063 28.2597 39.3293 25.2275 35.6569 25.2275C31.9846 25.2275 29.0076 28.2597 29.0076 32C29.0076 35.7404 31.9846 38.7725 35.6569 38.7725Z" fill="#087EA4"/>
                <path d="M35.6569 47.2382C54.0186 47.2382 68.9037 40.4158 68.9037 32.0001C68.9037 23.5843 54.0186 16.762 35.6569 16.762C17.2952 16.762 2.41016 23.5843 2.41016 32.0001C2.41016 40.4158 17.2952 47.2382 35.6569 47.2382Z" stroke="#087EA4" stroke-width="3"/>
                <path d="M22.7003 39.619C31.8811 55.8152 45.1245 65.5336 52.2803 61.3257C59.436 57.1178 57.7944 40.5771 48.6135 24.3809C39.4327 8.18475 26.1893 -1.53366 19.0335 2.67422C11.8778 6.88211 13.5194 23.4228 22.7003 39.619Z" stroke="#087EA4" stroke-width="3"/>
                <path d="M22.7003 24.3808C13.5194 40.577 11.8778 57.1177 19.0335 61.3256C26.1893 65.5335 39.4327 55.8151 48.6136 39.6189C57.7944 23.4228 59.4361 6.88205 52.2803 2.67416C45.1245 -1.53372 31.8811 8.18469 22.7003 24.3808Z" stroke="#087EA4" stroke-width="3"/>
            </g>
            <defs>
                <clipPath id="clip0_1_481">
                    <rect width="69.8182" height="64" fill="white" transform="translate(0.747803)"/>
                </clipPath>
            </defs>
    </g>


    <g id="figma">
        <svg width="44" height="64" viewBox="0 0 44 64" fill="none" xmlns="http://www.w3.org/2000/svg">
            <g clip-path="url(#clip0_1_536)">
                <path d="M22.0259 31.9999C22.0259 29.1709 23.1497 26.4578 25.1501 24.4574C27.1505 22.4571 29.8636 21.3333 32.6926 21.3333C35.5216 21.3333 38.2347 22.4571 40.2351 24.4574C42.2355 26.4578 43.3593 29.1709 43.3593 31.9999C43.3593 34.8289 42.2355 37.542 40.2351 39.5424C38.2347 41.5428 35.5216 42.6666 32.6926 42.6666C29.8636 42.6666 27.1505 41.5428 25.1501 39.5424C23.1497 37.542 22.0259 34.8289 22.0259 31.9999Z" fill="#1ABCFE"/>
                <path d="M0.692596 53.3334C0.692596 50.5044 1.8164 47.7913 3.81679 45.7909C5.81718 43.7906 8.53029 42.6667 11.3593 42.6667H22.0259V53.3334C22.0259 56.1624 20.9021 58.8755 18.9017 60.8759C16.9013 62.8763 14.1882 64.0001 11.3593 64.0001C8.53029 64.0001 5.81718 62.8763 3.81679 60.8759C1.8164 58.8755 0.692596 56.1624 0.692596 53.3334Z" fill="#0ACF83"/>
                <path d="M22.0259 0V21.3333H32.6926C35.5216 21.3333 38.2347 20.2095 40.2351 18.2091C42.2355 16.2087 43.3593 13.4956 43.3593 10.6667C43.3593 7.83769 42.2355 5.12458 40.2351 3.12419C38.2347 1.12381 35.5216 0 32.6926 0L22.0259 0Z" fill="#FF7262"/>
                <path d="M0.692596 10.6667C0.692596 13.4956 1.8164 16.2087 3.81679 18.2091C5.81718 20.2095 8.53029 21.3333 11.3593 21.3333H22.0259V0H11.3593C8.53029 0 5.81718 1.12381 3.81679 3.12419C1.8164 5.12458 0.692596 7.83769 0.692596 10.6667Z" fill="#F24E1E"/>
                <path d="M0.692596 31.9999C0.692596 34.8289 1.8164 37.542 3.81679 39.5424C5.81718 41.5428 8.53029 42.6666 11.3593 42.6666H22.0259V21.3333H11.3593C8.53029 21.3333 5.81718 22.4571 3.81679 24.4574C1.8164 26.4578 0.692596 29.1709 0.692596 31.9999Z" fill="#A259FF"/>
            </g>
            <defs>
                <clipPath id="clip0_1_536">
                    <rect width="42.6667" height="64" fill="white" transform="translate(0.692596)"/>
                </clipPath>
            </defs>
        </svg>

    </g>
    <g id="redux">
        <symbol width="2500" height="2383" viewBox="0 0 256 244" xmlns="http://www.w3.org/2000/svg" preserveAspectRatio="xMidYMid"/>
        <path d="M177.381 169.733c9.447-.978 16.614-9.122 16.288-18.896-.325-9.773-8.47-17.592-18.243-17.592h-.651c-10.1.326-17.918 8.796-17.592 18.895.326 4.887 2.28 9.122 5.212 12.054-11.076 21.828-28.016 37.791-53.426 51.148-17.266 9.122-35.183 12.38-53.1 10.1-14.66-1.955-26.062-8.47-33.23-19.222-10.424-15.963-11.401-33.23-2.605-50.496 6.19-12.38 15.962-21.502 22.152-26.063-1.303-4.235-3.258-11.402-4.235-16.614-47.237 34.207-42.35 80.468-28.016 102.295 10.75 16.29 32.577 26.389 56.684 26.389 6.515 0 13.03-.652 19.546-2.28 41.699-8.145 73.299-32.905 91.216-69.718zm57.336-40.397c-24.759-28.995-61.245-44.958-102.944-44.958h-5.212c-2.932-5.864-9.122-9.774-15.963-9.774h-.652C99.848 74.93 92.03 83.4 92.355 93.5c.326 9.773 8.47 17.592 18.243 17.592h.651c7.167-.326 13.357-4.887 15.963-11.077h5.864c24.759 0 48.214 7.167 69.39 21.176 16.288 10.751 28.016 24.76 34.531 41.7 5.538 13.683 5.212 27.04-.652 38.443-9.121 17.266-24.432 26.714-44.63 26.714-13.031 0-25.41-3.91-31.926-6.842-3.583 3.258-10.099 8.47-14.66 11.729 14.009 6.515 28.343 10.099 42.025 10.099 31.274 0 54.404-17.267 63.2-34.533 9.447-18.896 8.795-51.474-15.637-79.165zM69.225 175.27c.326 9.774 8.47 17.592 18.243 17.592h.652c10.099-.325 17.917-8.796 17.591-18.895-.325-9.774-8.47-17.592-18.243-17.592h-.651c-.652 0-1.63 0-2.28.325-13.357-22.153-18.895-46.26-16.94-72.323 1.302-19.547 7.818-36.488 19.22-50.497 9.447-12.054 27.69-17.918 40.07-18.243 34.531-.652 49.19 42.351 50.168 59.618 4.235.977 11.402 3.258 16.289 4.887C189.434 27.366 156.857 0 125.584 0c-29.32 0-56.359 21.176-67.11 52.451-14.985 41.7-5.212 81.771 13.031 113.372-1.628 2.28-2.606 5.864-2.28 9.448z" fill="#764ABC"/>
    </g>
    <g id="git">
        <symbol width="64" height="64" viewBox="0 0 64 64" fill="none" xmlns="http://www.w3.org/2000/svg"/>
            <path d="M56.2667 29.4667L34.5333 7.73342C33.8667 7.06675 32.9333 6.66675 32 6.66675C31.0667 6.66675 30.1333 7.06675 29.4667 7.73342L24.8 12.4001L30.2667 17.8667C30.8 17.6001 31.3333 17.4667 32 17.4667C34.2667 17.4667 36 19.2001 36 21.4667C36 22.1334 35.8667 22.6667 35.6 23.2001L40.9333 28.5334C41.4667 28.2667 42 28.1334 42.6667 28.1334C44.9333 28.1334 46.6667 29.8667 46.6667 32.1334C46.6667 34.4001 44.9333 36.1334 42.6667 36.1334C40.4 36.1334 38.6667 34.4001 38.6667 32.1334C38.6667 31.4667 38.8 30.9334 39.0667 30.4001L33.7333 25.0667C33.6 25.0667 33.4667 25.2001 33.3333 25.2001V39.0667C34.9333 39.6001 36 41.0667 36 42.8001C36 45.0667 34.2667 46.8001 32 46.8001C29.7333 46.8001 28 45.0667 28 42.8001C28 41.0667 29.0667 39.6001 30.6667 39.0667V25.0667C29.0667 24.5334 28 23.0667 28 21.3334C28 20.6667 28.1333 20.1334 28.4 19.6001L22.9333 14.1334L7.73333 29.4667C7.06666 30.1334 6.66666 31.0667 6.66666 32.0001C6.66666 32.9334 7.06666 33.8667 7.73333 34.5334L29.4667 56.2668C30.1333 56.9334 31.0667 57.3334 32 57.3334C32.9333 57.3334 33.8667 56.9334 34.5333 56.2668L56.2667 34.5334C56.9333 33.8667 57.3333 32.9334 57.3333 32.0001C57.3333 31.0667 56.9333 30.1334 56.2667 29.4667Z" fill="#F4511E"/>
    </g>

    <g id="graph">
        <symbol width="2500" height="2383" viewBox="0 0 256 244" xmlns="http://www.w3.org/2000/svg" preserveAspectRatio="xMidYMid"/>
        <path d="M177.381 169.733c9.447-.978 16.614-9.122 16.288-18.896-.325-9.773-8.47-17.592-18.243-17.592h-.651c-10.1.326-17.918 8.796-17.592 18.895.326 4.887 2.28 9.122 5.212 12.054-11.076 21.828-28.016 37.791-53.426 51.148-17.266 9.122-35.183 12.38-53.1 10.1-14.66-1.955-26.062-8.47-33.23-19.222-10.424-15.963-11.401-33.23-2.605-50.496 6.19-12.38 15.962-21.502 22.152-26.063-1.303-4.235-3.258-11.402-4.235-16.614-47.237 34.207-42.35 80.468-28.016 102.295 10.75 16.29 32.577 26.389 56.684 26.389 6.515 0 13.03-.652 19.546-2.28 41.699-8.145 73.299-32.905 91.216-69.718zm57.336-40.397c-24.759-28.995-61.245-44.958-102.944-44.958h-5.212c-2.932-5.864-9.122-9.774-15.963-9.774h-.652C99.848 74.93 92.03 83.4 92.355 93.5c.326 9.773 8.47 17.592 18.243 17.592h.651c7.167-.326 13.357-4.887 15.963-11.077h5.864c24.759 0 48.214 7.167 69.39 21.176 16.288 10.751 28.016 24.76 34.531 41.7 5.538 13.683 5.212 27.04-.652 38.443-9.121 17.266-24.432 26.714-44.63 26.714-13.031 0-25.41-3.91-31.926-6.842-3.583 3.258-10.099 8.47-14.66 11.729 14.009 6.515 28.343 10.099 42.025 10.099 31.274 0 54.404-17.267 63.2-34.533 9.447-18.896 8.795-51.474-15.637-79.165zM69.225 175.27c.326 9.774 8.47 17.592 18.243 17.592h.652c10.099-.325 17.917-8.796 17.591-18.895-.325-9.774-8.47-17.592-18.243-17.592h-.651c-.652 0-1.63 0-2.28.325-13.357-22.153-18.895-46.26-16.94-72.323 1.302-19.547 7.818-36.488 19.22-50.497 9.447-12.054 27.69-17.918 40.07-18.243 34.531-.652 49.19 42.351 50.168 59.618 4.235.977 11.402 3.258 16.289 4.887C189.434 27.366 156.857 0 125.584 0c-29.32 0-56.359 21.176-67.11 52.451-14.985 41.7-5.212 81.771 13.031 113.372-1.628 2.28-2.606 5.864-2.28 9.448z" fill="#764ABC"/>
    </g>

    <g id="redux-saga">
        <symbol xmlns="http://www.w3.org/2000/svg" width="2500" height="1515" viewBox="0 0 66 40" preserveAspectRatio="xMinYMin meet"/>
        <path fill="#89D96D" d="M35.259 14.782a2.591 2.591 0 0 1 3.891-2.243c2.348-.862 4.963-1.313 7.682-1.313 7.281 0 13.526 3.252 15.637 7.932-.018 1.108-1.592 1.624-2.22.944-1.731-3.759-7.199-6.465-13.417-6.465-2.26 0-4.429.345-6.393 1.004a2.592 2.592 0 1 1-5.18.141zm29.113 9.644a2.592 2.592 0 1 0-4.626 1.605c-.828 1.273-2.115 2.426-3.764 3.352-2.547 1.428-5.796 2.215-9.151 2.215-2.905 0-5.694-.575-8.068-1.665-1.604-.737-2.938-1.667-3.935-2.738-.661-.385-2.189.843-1.635 1.779 2.994 3.114 8.072 5.036 13.638 5.036 3.761 0 7.43-.896 10.331-2.524 2.126-1.193 3.776-2.738 4.814-4.476a2.594 2.594 0 0 0 2.396-2.584z"/>
        <path fill="#999" d="M14.435 29.29c-2.364-3.065-3.703-7.39-3.703-12.06 0-4.25 1.121-8.261 3.156-11.295C16.021 2.752 18.907 1 22.013 1c2.831 0 5.53 1.492 7.601 4.2 1.955 2.558 3.227 6.047 3.58 9.826a24.983 24.983 0 0 0-2.591-1.243C29.6 7.776 26.064 3.411 22.013 3.411c-2.277 0-4.452 1.373-6.124 3.867-1.771 2.641-2.747 6.176-2.747 9.953 0 4.152 1.227 8.094 3.31 10.724a2.592 2.592 0 1 1-2.017 1.335zm18.443-12.781c-4.232-2.444-8.954-3.414-12.862-2.732a2.592 2.592 0 1 0 .733 2.317c3.289-.486 7.282.4 10.923 2.503 4.447 2.567 7.592 6.552 8.207 10.247.767.32 1.604.594 2.51.807-.236-4.8-3.919-9.915-9.511-13.142zm.639 19.98c-2.334.297-4.982-.074-7.586-1.048-.748.578-1.54 1.12-2.372 1.621 2.766 1.27 5.664 1.937 8.352 1.937.651 0 1.291-.039 1.912-.118 3.219-.409 5.77-1.861 7.237-4.105a22.276 22.276 0 0 1-2.45-.745c-1.129 1.317-2.898 2.179-5.093 2.458zm-2.581-9.472a2.592 2.592 0 1 0-2.151-1.105c-.493 1.186-1.216 2.373-2.138 3.504-1.426 1.748-3.301 3.32-5.422 4.545-2.961 1.711-6.15 2.629-9.083 2.628-.306 0-.61-.01-.91-.03-2.996-.201-5.272-1.398-6.411-3.369-2.018-3.496-.006-8.754 4.686-12.621a24.79 24.79 0 0 1-.21-2.594l-.133-.185c-3.056 2.197-5.406 5.033-6.619 7.983-1.285 3.126-1.218 6.188.188 8.622 1.553 2.689 4.514 4.313 8.337 4.57.351.023.706.035 1.064.035 3.355 0 6.97-1.03 10.296-2.951 3.965-2.288 7.009-5.556 8.506-9.032z"/>
    </g>
    <g id="swift">
        <symbol width="800px" height="800px" viewBox="-252 343.9 106.1 106.1" xmlns="http://www.w3.org/2000/svg"/>
        <path fill="#F05138" d="M-145.9 373.3v-3.2c-.1-2.3-.2-4.7-.6-7-.4-2.3-1.1-4.5-2.2-6.6-1.1-2.1-2.4-4-4.1-5.6-1.7-1.7-3.6-3-5.6-4.1-2.1-1.1-4.3-1.8-6.6-2.2-2.3-.4-4.6-.6-7-.6h-53.7c-.6 0-1.2 0-1.7.1-1.7.1-3.5.2-5.2.5-1.7.3-3.4.8-5 1.4-.5.2-1.1.5-1.6.7-1.6.8-3 1.8-4.4 2.9-.4.4-.9.8-1.3 1.2-1.7 1.7-3 3.6-4.1 5.6-1.1 2.1-1.8 4.3-2.2 6.6-.4 2.3-.5 4.6-.6 7v53.7c.1 2.3.2 4.7.6 7 .4 2.3 1.1 4.5 2.2 6.6 1.1 2.1 2.4 4 4.1 5.6 1.7 1.7 3.6 3 5.6 4.1 2.1 1.1 4.3 1.8 6.6 2.2 2.3.4 4.6.6 7 .6h53.7c2.3-.1 4.7-.2 7-.6 2.3-.4 4.5-1.1 6.6-2.2 2.1-1.1 4-2.4 5.6-4.1 1.7-1.7 3-3.6 4.1-5.6 1.1-2.1 1.8-4.3 2.2-6.6.4-2.3.6-4.6.6-7v-3.2V377v-3.7z"/>
        <path fill="#FFF" d="M-168 409.4l.3-1.2c4.4-17.5-6.3-38.3-24.5-49.2 8 10.8 11.5 23.9 8.4 35.3-.3 1-.6 2-1 3-.4-.3-.9-.6-1.6-.9 0 0-18.1-11.2-37.7-30.9-.5-.5 10.5 15.7 22.9 28.8-5.9-3.3-22.2-15.2-32.6-24.6 1.3 2.1 2.8 4.2 4.4 6.1 8.6 11 19.9 24.5 33.4 34.9-9.5 5.8-22.9 6.3-36.2 0-3.3-1.5-6.4-3.4-9.3-5.5 5.6 9 14.3 16.8 24.9 21.4 12.6 5.4 25.2 5.1 34.5.1 0 0 .1 0 .1-.1.4-.2.8-.5 1.2-.7 4.5-2.3 13.3-4.6 18.1 4.6 1.4 2.1 3.9-9.9-5.3-21.1z"/>
    </g>
</svg>
