<svg version="1.0" xmlns="http://www.w3.org/2000/svg"
 width="225.000000pt" height="225.000000pt" viewBox="0 0 225.000000 225.000000"
 preserveAspectRatio="xMidYMid meet">

<g transform="translate(0.000000,225.000000) scale(0.100000,-0.100000)"
fill="#f0f" stroke="none">
<path d="M1293 2174 l-93 -66 0 -905 c0 -723 3 -904 13 -896 6 5 135 110 286
234 l275 224 -187 3 -187 2 0 735 c0 404 -3 735 -7 735 -5 -1 -50 -30 -100
-66z"/>
<path d="M752 1744 l-274 -224 181 0 181 0 0 -755 c0 -415 3 -755 6 -755 3 0
48 35 100 77 l94 77 0 903 c0 497 -3 903 -7 902 -5 0 -131 -101 -281 -225z"/>
</g>
</svg>
