<svg width="44" height="64" viewBox="0 0 44 64" fill="none" xmlns="http://www.w3.org/2000/svg">
<g clip-path="url(#clip0_1_536)">
<path d="M22.0259 31.9999C22.0259 29.1709 23.1497 26.4578 25.1501 24.4574C27.1505 22.4571 29.8636 21.3333 32.6926 21.3333C35.5216 21.3333 38.2347 22.4571 40.2351 24.4574C42.2355 26.4578 43.3593 29.1709 43.3593 31.9999C43.3593 34.8289 42.2355 37.542 40.2351 39.5424C38.2347 41.5428 35.5216 42.6666 32.6926 42.6666C29.8636 42.6666 27.1505 41.5428 25.1501 39.5424C23.1497 37.542 22.0259 34.8289 22.0259 31.9999Z" fill="#1ABCFE"/>
<path d="M0.692596 53.3334C0.692596 50.5044 1.8164 47.7913 3.81679 45.7909C5.81718 43.7906 8.53029 42.6667 11.3593 42.6667H22.0259V53.3334C22.0259 56.1624 20.9021 58.8755 18.9017 60.8759C16.9013 62.8763 14.1882 64.0001 11.3593 64.0001C8.53029 64.0001 5.81718 62.8763 3.81679 60.8759C1.8164 58.8755 0.692596 56.1624 0.692596 53.3334Z" fill="#0ACF83"/>
<path d="M22.0259 0V21.3333H32.6926C35.5216 21.3333 38.2347 20.2095 40.2351 18.2091C42.2355 16.2087 43.3593 13.4956 43.3593 10.6667C43.3593 7.83769 42.2355 5.12458 40.2351 3.12419C38.2347 1.12381 35.5216 0 32.6926 0L22.0259 0Z" fill="#FF7262"/>
<path d="M0.692596 10.6667C0.692596 13.4956 1.8164 16.2087 3.81679 18.2091C5.81718 20.2095 8.53029 21.3333 11.3593 21.3333H22.0259V0H11.3593C8.53029 0 5.81718 1.12381 3.81679 3.12419C1.8164 5.12458 0.692596 7.83769 0.692596 10.6667Z" fill="#F24E1E"/>
<path d="M0.692596 31.9999C0.692596 34.8289 1.8164 37.542 3.81679 39.5424C5.81718 41.5428 8.53029 42.6666 11.3593 42.6666H22.0259V21.3333H11.3593C8.53029 21.3333 5.81718 22.4571 3.81679 24.4574C1.8164 26.4578 0.692596 29.1709 0.692596 31.9999Z" fill="#A259FF"/>
</g>
<defs>
<clipPath id="clip0_1_536">
<rect width="42.6667" height="64" fill="white" transform="translate(0.692596)"/>
</clipPath>
</defs>
</svg>
