<svg version="1.0" xmlns="http://www.w3.org/2000/svg"
 width="144.000000pt" height="144.000000pt" viewBox="0 0 144.000000 144.000000"
 preserveAspectRatio="xMidYMid meet">

<g transform="translate(0.000000,144.000000) scale(0.100000,-0.100000)"
fill="#000000" stroke="none">
<path d="M213 1412 c-100 -35 -171 -114 -193 -216 -8 -35 -10 -198 -8 -506 3
-441 4 -456 24 -501 28 -60 87 -119 150 -150 l49 -24 464 -3 c511 -3 527 -2
610 58 45 33 94 102 113 160 15 48 23 790 9 904 -16 135 -65 211 -174 268 -42
23 -45 23 -517 25 -436 3 -479 1 -527 -15z m771 -315 c66 -75 119 -163 148
-246 19 -55 23 -87 23 -186 0 -118 1 -122 34 -185 29 -53 35 -78 39 -142 3
-45 1 -78 -5 -78 -5 0 -19 13 -31 30 -52 69 -139 77 -248 22 -68 -34 -143 -52
-217 -52 -181 1 -401 112 -529 266 -64 78 -68 91 -16 59 162 -100 341 -131
492 -85 36 11 67 24 70 29 3 5 -30 38 -73 75 -44 36 -115 106 -159 154 -92
101 -262 311 -262 324 0 5 29 -15 64 -45 67 -57 269 -210 321 -243 23 -15 17
-4 -26 46 -70 80 -229 291 -229 303 0 5 40 -29 89 -75 104 -100 261 -227 365
-297 l75 -51 10 33 c39 124 12 279 -74 421 -19 32 -35 60 -35 63 0 14 131 -91
174 -140z"/>
</g>
</svg>
