<svg version="1.0" xmlns="http://www.w3.org/2000/svg"
 width="512.000000pt" height="512.000000pt" viewBox="0 0 512.000000 512.000000"
 preserveAspectRatio="xMidYMid meet">

<g transform="translate(0.000000,512.000000) scale(0.100000,-0.100000)"
fill="#000000" stroke="none">
<path d="M2325 5109 c-1140 -109 -2073 -962 -2280 -2083 -119 -649 14 -1312
372 -1861 303 -464 758 -825 1274 -1011 112 -40 179 -29 211 36 16 30 18 66
18 271 l0 236 -72 -14 c-49 -10 -118 -13 -213 -10 -120 3 -151 7 -220 31 -95
33 -199 100 -255 164 -23 26 -70 107 -106 180 -92 190 -158 280 -254 345 -64
43 -120 98 -120 119 0 62 152 65 273 5 92 -46 166 -115 244 -233 34 -50 84
-111 113 -137 101 -91 242 -136 381 -123 70 6 224 50 234 66 3 5 14 43 25 84
23 91 50 146 102 209 21 26 35 47 30 47 -29 0 -258 43 -327 62 -379 101 -635
329 -750 668 -53 155 -70 277 -70 500 0 224 7 269 65 419 33 84 111 214 162
268 l30 31 -16 49 c-53 165 -46 368 19 576 17 53 21 57 49 58 161 5 349 -61
579 -202 l98 -60 92 20 c212 48 283 55 542 55 261 1 316 -5 530 -50 l120 -26
100 63 c220 138 410 205 571 200 30 -1 32 -4 57 -88 15 -49 32 -119 38 -157
16 -94 6 -283 -19 -369 l-19 -67 48 -60 c84 -105 140 -218 181 -365 26 -92 35
-351 19 -495 -69 -588 -398 -913 -1021 -1010 -41 -6 -88 -13 -103 -16 l-28 -6
35 -39 c43 -47 88 -134 112 -215 15 -51 18 -123 23 -514 5 -416 8 -458 24
-483 40 -61 108 -62 264 -1 227 87 484 235 671 386 855 691 1177 1830 810
2864 -57 160 -179 404 -276 549 -484 723 -1292 1153 -2152 1144 -69 -1 -165
-6 -215 -10z"/>
</g>
</svg>
