<?xml version="1.0" standalone="no"?>
<!DOCTYPE svg PUBLIC "-//W3C//DTD SVG 20010904//EN"
 "http://www.w3.org/TR/2001/REC-SVG-20010904/DTD/svg10.dtd">
<svg version="1.0" xmlns="http://www.w3.org/2000/svg"
 width="700.000000pt" height="700.000000pt" viewBox="0 0 700.000000 700.000000"
 preserveAspectRatio="xMidYMid meet">
<metadata>
Created by potrace 1.14, written by Peter Selinger 2001-2017
</metadata>
<g transform="translate(0.000000,700.000000) scale(0.100000,-0.100000)"
fill="#000000" stroke="none">
<path d="M1687 6993 c-1 -1 -40 -4 -87 -7 -47 -3 -116 -9 -155 -12 -194 -15
-453 -86 -612 -167 -266 -136 -512 -386 -651 -663 -33 -66 -99 -248 -108 -298
-3 -17 -9 -49 -14 -71 -5 -22 -11 -60 -15 -85 -3 -25 -8 -56 -10 -70 -2 -14
-7 -74 -11 -135 -10 -147 -10 -3834 0 -3955 11 -137 13 -150 21 -205 13 -87
53 -248 79 -317 132 -353 361 -611 716 -810 94 -53 303 -124 415 -142 17 -2
50 -8 75 -11 25 -4 53 -9 63 -11 10 -2 59 -6 110 -11 118 -9 3828 -10 3962 0
107 8 260 25 285 32 8 3 33 7 55 11 78 12 280 85 373 135 133 71 227 136 316
220 245 231 405 519 460 829 24 135 25 140 33 230 8 83 12 3890 4 3980 -27
332 -85 550 -202 755 -77 134 -134 211 -229 306 -255 254 -557 403 -900 444
-25 3 -55 8 -66 10 -69 15 -390 18 -2057 19 -1017 0 -1849 0 -1850 -1z"/>
</g>
</svg>
