<svg version="1.0" xmlns="http://www.w3.org/2000/svg"
 width="512.000000pt" height="512.000000pt" viewBox="0 0 512.000000 512.000000"
 preserveAspectRatio="xMidYMid meet">

<g transform="translate(0.000000,512.000000) scale(0.100000,-0.100000)"
fill="#c5f87dd1" stroke="none">
<path d="M3035 5114 c-16 -2 -66 -9 -110 -15 -190 -24 -392 -88 -580 -181
-197 -97 -464 -298 -500 -375 -48 -100 32 -223 145 -223 53 0 93 24 205 121
184 160 454 284 728 336 126 23 417 24 542 1 341 -64 625 -214 865 -457 172
-175 295 -371 374 -600 66 -190 80 -279 80 -516 0 -178 -3 -225 -22 -311 -26
-121 -62 -232 -108 -337 -19 -43 -34 -92 -34 -110 0 -18 31 -205 70 -416 38
-212 68 -386 67 -388 -2 -1 -79 11 -172 28 -184 33 -217 33 -265 -8 -85 -71
-80 -188 11 -255 36 -27 611 -134 665 -123 51 9 110 68 119 119 6 28 -15 163
-82 526 l-89 487 29 69 c39 95 91 279 113 399 23 126 26 489 6 605 -57 319
-165 582 -342 833 -81 115 -296 333 -415 420 -243 179 -517 296 -815 348 -110
20 -410 34 -485 23z"/>
<path d="M1875 4150 c-490 -55 -915 -259 -1260 -605 -584 -586 -765 -1463
-458 -2228 l35 -88 -97 -533 c-73 -397 -96 -544 -90 -572 9 -51 68 -110 119
-119 28 -6 175 18 571 90 l534 97 88 -35 c267 -107 548 -155 843 -144 541 21
1018 231 1400 617 485 489 693 1182 559 1857 -124 627 -533 1163 -1104 1450
-197 99 -402 166 -615 199 -116 18 -416 26 -525 14z m505 -335 c362 -64 690
-236 948 -496 315 -319 488 -715 509 -1164 31 -691 -362 -1346 -991 -1650
-444 -215 -964 -233 -1411 -49 -182 75 -125 77 -624 -15 -245 -44 -446 -79
-448 -78 -2 2 33 201 78 443 91 497 90 448 15 629 -216 526 -152 1141 169
1620 290 433 743 711 1265 775 106 13 378 4 490 -15z"/>
<path d="M1014 2332 c-221 -79 -284 -358 -117 -526 120 -122 328 -122 448 0
62 64 90 134 90 229 0 90 -19 141 -80 213 -75 87 -227 125 -341 84z"/>
<path d="M1974 2332 c-221 -79 -284 -358 -117 -526 120 -122 328 -122 448 0
62 64 90 134 90 229 0 90 -19 141 -80 213 -75 87 -227 125 -341 84z"/>
<path d="M2934 2332 c-221 -79 -284 -358 -117 -526 120 -122 328 -122 448 0
62 64 90 134 90 229 0 90 -19 141 -80 213 -75 87 -227 125 -341 84z"/>
</g>
</svg>
