<svg width="50" height="50" viewBox="0 0 50 50" fill="none" xmlns="http://www.w3.org/2000/svg">

    <g id="html">
        <path d="M6 28L4 3H28L26 28L16 31L6 28Z" fill="#E44D26"/>
        <path d="M26 5H16V29.5L24 27L26 5Z" fill="#F16529"/>
        <path d="M9.5 17.5L8.5 8H24L23.5 11H11.5L12 14.5H23L22 24L16 26L10 24L9.5 19H12.5L13 21.5L16 22.5L19 21.5L19.5 17.5H9.5Z"
              fill="white"/>
    </g>

    <g id="css">
        <path d="M6 28L4 3H28L26 28L16 31L6 28Z" fill="#1172B8"/>
        <path d="M26 5H16V29.5L24 27L26 5Z" fill="#33AADD"/>
        <path d="M19.5 17.5H9.5L9 14L17 11.5H9L8.5 8.5H24L23.5 12L17 14.5H23L22 24L16 26L10 24L9.5 19H12.5L13 21.5L16 22.5L19 21.5L19.5 17.5Z"
              fill="white"/>
    </g>

    <g id="js">
        <rect width="24" height="24" fill="#F1DC50"/>
        <path stroke="#333" stroke-width="2"
              d="M12,11 C12,15.749205 12,18.4158717 12,19 C12,19.8761925 11.4771235,21 10,21 C7.61461794,21 7.5,19 7.5,19 M20.7899648,13.51604 C20.1898831,12.5053467 19.3944074,12 18.4035378,12 C16.8563489,12 16,13 16,14 C16,15 16.5,16 18.5084196,16.5 C19.7864643,16.8181718 21,17.5 21,19 C21,20.5 19.6845401,21 18.5,21 C16.9861609,21 15.9861609,20.3333333 15.5,19"/>
    </g>

    <g id="ts">
        <rect x="0" y="0" width="28" height="28" rx="1" style="fill:#3178c6"/>
        <path d="M18.245,23.759v3.068a6.492,6.492,0,0,0,1.764.575,11.56,11.56,0,0,0,2.146.192,9.968,9.968,0,0,0,2.088-.211,5.11,5.11,0,0,0,1.735-.7,3.542,3.542,0,0,0,1.181-1.266,4.469,4.469,0,0,0,.186-3.394,3.409,3.409,0,0,0-.717-1.117,5.236,5.236,0,0,0-1.123-.877,12.027,12.027,0,0,0-1.477-.734q-.6-.249-1.08-.484a5.5,5.5,0,0,1-.813-.479,2.089,2.089,0,0,1-.516-.518,1.091,1.091,0,0,1-.181-.618,1.039,1.039,0,0,1,.162-.571,1.4,1.4,0,0,1,.459-.436,2.439,2.439,0,0,1,.726-.283,4.211,4.211,0,0,1,.956-.1,5.942,5.942,0,0,1,.808.058,6.292,6.292,0,0,1,.856.177,5.994,5.994,0,0,1,.836.3,4.657,4.657,0,0,1,.751.422V13.9a7.509,7.509,0,0,0-1.525-.4,12.426,12.426,0,0,0-1.9-.129,8.767,8.767,0,0,0-2.064.235,5.239,5.239,0,0,0-1.716.733,3.655,3.655,0,0,0-1.171,1.271,3.731,3.731,0,0,0-.431,1.845,3.588,3.588,0,0,0,.789,2.34,6,6,0,0,0,2.395,1.639q.63.26,1.175.509a6.458,6.458,0,0,1,.942.517,2.463,2.463,0,0,1,.626.585,1.2,1.2,0,0,1,.23.719,1.1,1.1,0,0,1-.144.552,1.269,1.269,0,0,1-.435.441,2.381,2.381,0,0,1-.726.292,4.377,4.377,0,0,1-1.018.105,5.773,5.773,0,0,1-1.969-.35A5.874,5.874,0,0,1,18.245,23.759Zm-5.154-7.638h4V13.594H5.938v2.527H9.92V27.375h3.171Z"
              style="fill:#ffffff;fill-rule:evenodd"/>
    </g>

    <g id="react">
        <path d="M18.6789 15.9759C18.6789 14.5415 17.4796 13.3785 16 13.3785C14.5206 13.3785 13.3211 14.5415 13.3211 15.9759C13.3211 17.4105 14.5206 18.5734 16 18.5734C17.4796 18.5734 18.6789 17.4105 18.6789 15.9759Z"
              fill="#53C1DE"/>
        <path fill-rule="evenodd" clip-rule="evenodd"
              d="M24.7004 11.1537C25.2661 8.92478 25.9772 4.79148 23.4704 3.39016C20.9753 1.99495 17.7284 4.66843 16.0139 6.27318C14.3044 4.68442 10.9663 2.02237 8.46163 3.42814C5.96751 4.82803 6.73664 8.8928 7.3149 11.1357C4.98831 11.7764 1 13.1564 1 15.9759C1 18.7874 4.98416 20.2888 7.29698 20.9289C6.71658 23.1842 5.98596 27.1909 8.48327 28.5877C10.9973 29.9932 14.325 27.3945 16.0554 25.7722C17.7809 27.3864 20.9966 30.0021 23.4922 28.6014C25.9956 27.1963 25.3436 23.1184 24.7653 20.8625C27.0073 20.221 31 18.7523 31 15.9759C31 13.1835 26.9903 11.7923 24.7004 11.1537ZM24.4162 19.667C24.0365 18.5016 23.524 17.2623 22.8971 15.9821C23.4955 14.7321 23.9881 13.5088 24.3572 12.3509C26.0359 12.8228 29.7185 13.9013 29.7185 15.9759C29.7185 18.07 26.1846 19.1587 24.4162 19.667ZM22.85 27.526C20.988 28.571 18.2221 26.0696 16.9478 24.8809C17.7932 23.9844 18.638 22.9422 19.4625 21.7849C20.9129 21.6602 22.283 21.4562 23.5256 21.1777C23.9326 22.7734 24.7202 26.4763 22.85 27.526ZM9.12362 27.5111C7.26143 26.47 8.11258 22.8946 8.53957 21.2333C9.76834 21.4969 11.1286 21.6865 12.5824 21.8008C13.4123 22.9332 14.2816 23.9741 15.1576 24.8857C14.0753 25.9008 10.9945 28.557 9.12362 27.5111ZM2.28149 15.9759C2.28149 13.874 5.94207 12.8033 7.65904 12.3326C8.03451 13.5165 8.52695 14.7544 9.12123 16.0062C8.51925 17.2766 8.01977 18.5341 7.64085 19.732C6.00369 19.2776 2.28149 18.0791 2.28149 15.9759ZM9.1037 4.50354C10.9735 3.45416 13.8747 6.00983 15.1159 7.16013C14.2444 8.06754 13.3831 9.1006 12.5603 10.2265C11.1494 10.3533 9.79875 10.5569 8.55709 10.8297C8.09125 9.02071 7.23592 5.55179 9.1037 4.50354ZM20.3793 11.5771C21.3365 11.6942 22.2536 11.85 23.1147 12.0406C22.8562 12.844 22.534 13.6841 22.1545 14.5453C21.6044 13.5333 21.0139 12.5416 20.3793 11.5771ZM16.0143 8.0481C16.6054 8.66897 17.1974 9.3623 17.7798 10.1145C16.5985 10.0603 15.4153 10.0601 14.234 10.1137C14.8169 9.36848 15.414 8.67618 16.0143 8.0481ZM9.8565 14.5444C9.48329 13.6862 9.16398 12.8424 8.90322 12.0275C9.75918 11.8418 10.672 11.69 11.623 11.5748C10.9866 12.5372 10.3971 13.5285 9.8565 14.5444ZM11.6503 20.4657C10.6679 20.3594 9.74126 20.2153 8.88556 20.0347C9.15044 19.2055 9.47678 18.3435 9.85796 17.4668C10.406 18.4933 11.0045 19.4942 11.6503 20.4657ZM16.0498 23.9915C15.4424 23.356 14.8365 22.6531 14.2448 21.8971C15.4328 21.9423 16.6231 21.9424 17.811 21.891C17.2268 22.6608 16.6369 23.3647 16.0498 23.9915ZM22.1667 17.4222C22.5677 18.3084 22.9057 19.1657 23.1742 19.9809C22.3043 20.1734 21.3652 20.3284 20.3757 20.4435C21.015 19.4607 21.6149 18.4536 22.1667 17.4222ZM18.7473 20.5941C16.9301 20.72 15.1016 20.7186 13.2838 20.6044C12.2509 19.1415 11.3314 17.603 10.5377 16.0058C11.3276 14.4119 12.2404 12.8764 13.2684 11.4158C15.0875 11.2825 16.9178 11.2821 18.7369 11.4166C19.7561 12.8771 20.6675 14.4086 21.4757 15.9881C20.6771 17.5812 19.7595 19.1198 18.7473 20.5941ZM22.8303 4.4666C24.7006 5.51254 23.8681 9.22726 23.4595 10.8426C22.2149 10.5641 20.8633 10.3569 19.4483 10.2281C18.6239 9.09004 17.7698 8.05518 16.9124 7.15949C18.1695 5.98441 20.9781 3.43089 22.8303 4.4666Z"
              fill="#53C1DE"/>
    </g>

    <g id="redux">
        <path d="M21.7868 21.556C22.8939 21.4433 23.7338 20.505 23.6956 19.3789C23.6575 18.253 22.703 17.3522 21.5577 17.3522H21.4814C20.2978 17.3897 19.3817 18.3656 19.4199 19.5291C19.4581 20.0921 19.6871 20.58 20.0307 20.9178C18.7327 23.4326 16.7475 25.2717 13.7698 26.8106C11.7464 27.8615 9.6468 28.2369 7.54715 27.9742C5.82918 27.749 4.49301 26.9984 3.65301 25.7596C2.43144 23.9205 2.31695 21.9312 3.34773 19.942C4.07312 18.5157 5.21828 17.4647 5.94367 16.9392C5.79098 16.4513 5.56187 15.6256 5.44738 15.0251C-0.0882044 18.9661 0.484491 24.2959 2.16426 26.8106C3.42402 28.6873 5.98187 29.8509 8.80691 29.8509C9.57039 29.8509 10.3339 29.7757 11.0975 29.5882C15.9841 28.6498 19.6872 25.7972 21.7868 21.556ZM28.5059 16.9018C25.6045 13.5613 21.3287 11.7222 16.4421 11.7222H15.8314C15.4878 11.0466 14.7624 10.5961 13.9607 10.5961H13.8843C12.7009 10.6337 11.7848 11.6095 11.8229 12.7731C11.8611 13.8991 12.8154 14.7999 13.9607 14.7999H14.037C14.8769 14.7624 15.6023 14.2369 15.9077 13.5237H16.5948C19.4963 13.5237 22.2449 14.3494 24.7265 15.9634C26.6352 17.202 28.0096 18.816 28.7731 20.7677C29.4221 22.3441 29.3839 23.883 28.6967 25.1967C27.6278 27.1859 25.8336 28.2744 23.4666 28.2744C21.9395 28.2744 20.4889 27.824 19.7253 27.4862C19.3054 27.8615 18.5418 28.462 18.0073 28.8375C19.649 29.5881 21.3287 30.001 22.9321 30.001C26.597 30.001 29.3076 28.0116 30.3384 26.0224C31.4454 23.8454 31.369 20.0921 28.5059 16.9018ZM9.1123 22.1939C9.15051 23.3199 10.1049 24.2206 11.2502 24.2206H11.3266C12.51 24.1832 13.4262 23.2073 13.388 22.0438C13.3499 20.9177 12.3954 20.017 11.2502 20.017H11.1739C11.0975 20.017 10.9829 20.017 10.9067 20.0544C9.3414 17.5022 8.69242 14.7248 8.92152 11.7221C9.0741 9.47006 9.83769 7.51828 11.1739 5.9043C12.2809 4.51555 14.4188 3.83996 15.8696 3.80252C19.9162 3.7274 21.634 8.68179 21.7486 10.6711C22.2449 10.7837 23.0848 11.0465 23.6575 11.2342C23.1993 5.15382 19.3817 2.00098 15.7169 2.00098C12.2809 2.00098 9.1123 4.44067 7.85242 8.04387C6.09637 12.8481 7.24164 17.4647 9.37949 21.1055C9.18871 21.3682 9.0741 21.7811 9.1123 22.194V22.1939Z"
              fill="#c5f87dd1"/>
    </g>

    <g id="redux-saga">
        <path fill="#89D96D"
              d="M35.259 14.782a2.591 2.591 0 0 1 3.891-2.243c2.348-.862 4.963-1.313 7.682-1.313 7.281 0 13.526 3.252 15.637 7.932-.018 1.108-1.592 1.624-2.22.944-1.731-3.759-7.199-6.465-13.417-6.465-2.26 0-4.429.345-6.393 1.004a2.592 2.592 0 1 1-5.18.141zm29.113 9.644a2.592 2.592 0 1 0-4.626 1.605c-.828 1.273-2.115 2.426-3.764 3.352-2.547 1.428-5.796 2.215-9.151 2.215-2.905 0-5.694-.575-8.068-1.665-1.604-.737-2.938-1.667-3.935-2.738-.661-.385-2.189.843-1.635 1.779 2.994 3.114 8.072 5.036 13.638 5.036 3.761 0 7.43-.896 10.331-2.524 2.126-1.193 3.776-2.738 4.814-4.476a2.594 2.594 0 0 0 2.396-2.584z"/>
        <path fill="#999"
              d="M14.435 29.29c-2.364-3.065-3.703-7.39-3.703-12.06 0-4.25 1.121-8.261 3.156-11.295C16.021 2.752 18.907 1 22.013 1c2.831 0 5.53 1.492 7.601 4.2 1.955 2.558 3.227 6.047 3.58 9.826a24.983 24.983 0 0 0-2.591-1.243C29.6 7.776 26.064 3.411 22.013 3.411c-2.277 0-4.452 1.373-6.124 3.867-1.771 2.641-2.747 6.176-2.747 9.953 0 4.152 1.227 8.094 3.31 10.724a2.592 2.592 0 1 1-2.017 1.335zm18.443-12.781c-4.232-2.444-8.954-3.414-12.862-2.732a2.592 2.592 0 1 0 .733 2.317c3.289-.486 7.282.4 10.923 2.503 4.447 2.567 7.592 6.552 8.207 10.247.767.32 1.604.594 2.51.807-.236-4.8-3.919-9.915-9.511-13.142zm.639 19.98c-2.334.297-4.982-.074-7.586-1.048-.748.578-1.54 1.12-2.372 1.621 2.766 1.27 5.664 1.937 8.352 1.937.651 0 1.291-.039 1.912-.118 3.219-.409 5.77-1.861 7.237-4.105a22.276 22.276 0 0 1-2.45-.745c-1.129 1.317-2.898 2.179-5.093 2.458zm-2.581-9.472a2.592 2.592 0 1 0-2.151-1.105c-.493 1.186-1.216 2.373-2.138 3.504-1.426 1.748-3.301 3.32-5.422 4.545-2.961 1.711-6.15 2.629-9.083 2.628-.306 0-.61-.01-.91-.03-2.996-.201-5.272-1.398-6.411-3.369-2.018-3.496-.006-8.754 4.686-12.621a24.79 24.79 0 0 1-.21-2.594l-.133-.185c-3.056 2.197-5.406 5.033-6.619 7.983-1.285 3.126-1.218 6.188.188 8.622 1.553 2.689 4.514 4.313 8.337 4.57.351.023.706.035 1.064.035 3.355 0 6.97-1.03 10.296-2.951 3.965-2.288 7.009-5.556 8.506-9.032z"/>
    </g>

    <g id="graph">
        <path fill="#E535AB"
              d="M14.3335126,2.85206923 L19.0436746,5.57156232 C19.1861408,5.42269933 19.3517561,5.29107777 19.5390336,5.18229987 C20.6054985,4.56924218 21.9657203,4.93324518 22.585164,5.99971013 C23.1982217,7.06617507 22.8342187,8.42639682 21.7677537,9.04584053 C21.5354003,9.17940894 21.2887997,9.26659782 21.038849,9.31024708 L21.038849,14.6900096 C21.2856344,14.7341019 21.5290274,14.8207365 21.7585099,14.9526546 C22.8303433,15.5715108 23.1940011,16.9304425 22.5751449,17.9958959 C21.9626686,19.0613494 20.597357,19.4250072 19.5319036,18.8125309 C19.2675499,18.6605671 19.046399,18.4622584 18.8726413,18.2336837 L14.2472483,20.9042339 C14.359389,21.1704807 14.4213527,21.4632106 14.4213527,21.770637 C14.4213527,22.997106 13.4248466,24 12.1919896,24 C10.9591327,24 9.96262662,23.0034939 9.96262662,21.770637 C9.96262662,21.5276826 10.001326,21.293907 10.0729072,21.0751276 L5.39448212,18.3739583 C5.24136397,18.5447862 5.05910975,18.6948998 4.84979559,18.8164775 C3.77694463,19.4295352 2.41672287,19.0655322 1.80366518,17.9990673 C1.19060749,16.9326023 1.55461049,15.5723806 2.62107544,14.9529369 C2.78345801,14.8595912 2.95265101,14.7888975 3.12500248,14.7398866 L3.12500248,9.26050018 C2.95045269,9.21143227 2.77917162,9.14021295 2.61500295,9.04584053 C1.548538,8.43278284 1.184535,7.06617507 1.79759269,5.99971013 C2.41065038,4.93324518 3.77725815,4.56924218 4.8437231,5.18229987 C4.99574654,5.27060092 5.13349582,5.37395472 5.25617553,5.48936462 L10.0208088,2.73842163 C9.98274768,2.57496174 9.96262662,2.40454853 9.96262662,2.22936302 C9.96262662,0.996506107 10.9591327,4.6629367e-14 12.1919896,4.6629367e-14 C13.4248466,4.6629367e-14 14.4213527,0.996506107 14.4213527,2.22936302 C14.4213527,2.44556708 14.3907061,2.6545024 14.3335126,2.85206923 Z M13.8405544,3.73141097 C13.7908242,3.78597435 13.7384158,3.8380524 13.6835353,3.88743909 L19.9624322,14.7624885 C19.9851165,14.7552188 20.0079142,14.7483109 20.0308156,14.7417672 L20.0308156,9.25474103 C19.4969015,9.10015188 19.0200076,8.74749468 18.7216233,8.22843028 C18.396599,7.66302338 18.3462063,7.01504748 18.5295247,6.43866863 L13.8405544,3.73141097 Z M10.5612952,3.75078761 C10.5290822,3.71626947 10.4979547,3.6807246 10.4679668,3.64420691 L5.81568405,6.33028239 C6.04182311,6.93281226 6.00669953,7.62728911 5.66113335,8.22843028 C5.32249418,8.81752134 4.75393127,9.19227671 4.13303588,9.30641503 L4.13303588,14.6916383 C4.16637437,14.6977154 4.19956458,14.7045461 4.23257942,14.7121233 L10.5612952,3.75078761 Z M12.8009687,4.3748119 C12.60746,4.42948073 12.403193,4.45872604 12.1919896,4.45872604 C11.9129003,4.45872604 11.645923,4.40765895 11.3998763,4.31434325 L5.14116232,15.1544358 C5.34676617,15.3211714 5.52618301,15.5275552 5.66720584,15.7703471 C5.76055152,15.9327297 5.83124515,16.1019227 5.8802561,16.2742741 L18.5020915,16.2742741 C18.5510684,16.101457 18.6218024,15.9318817 18.7152686,15.7692896 C18.8216025,15.5843129 18.950628,15.4204894 19.0968364,15.2792547 L12.8009687,4.3748119 Z M13.7498392,20.1747099 L18.4885766,17.4387184 C18.4752977,17.3870257 18.4638585,17.3348529 18.454287,17.2823075 L5.92850441,17.2823075 C5.91572246,17.3524283 5.89960649,17.4218931 5.88022341,17.4904498 L10.5957921,20.2130645 C11.0004395,19.7984186 11.5657199,19.541274 12.1919896,19.541274 C12.7987163,19.541274 13.3482006,19.7826203 13.7498392,20.1747099 Z"/>
    </g>

    <g id="figma">
        <path fill="#1ABCFE"
              d="M8.55 8c0-1.289 1.019-2.333 2.275-2.333C12.082 5.667 13.1 6.71 13.1 8c0 1.289-1.018 2.333-2.275 2.333C9.57 10.333 8.55 9.29 8.55 8z"/>
        <path fill="#0ACF83"
              d="M4 12.667c0-1.289 1.019-2.334 2.275-2.334H8.55v2.334C8.55 13.955 7.531 15 6.275 15S4 13.955 4 12.667z"/>
        <path fill="#FF7262"
              d="M8.55 1v4.667h2.275c1.257 0 2.275-1.045 2.275-2.334C13.1 2.045 12.082 1 10.825 1H8.55z"/>
        <path fill="#F24E1E" d="M4 3.333c0 1.289 1.019 2.334 2.275 2.334H8.55V1H6.275C5.019 1 4 2.045 4 3.333z"/>
        <path fill="#A259FF" d="M4 8c0 1.289 1.019 2.333 2.275 2.333H8.55V5.667H6.275C5.019 5.667 4 6.71 4 8z"/>
    </g>

    <g id="git">
        <path d="M2.58536 17.4132C1.80488 16.6327 1.80488 15.3673 2.58536 14.5868L14.5868 2.58536C15.3673 1.80488 16.6327 1.80488 17.4132 2.58536L29.4146 14.5868C30.1951 15.3673 30.1951 16.6327 29.4146 17.4132L17.4132 29.4146C16.6327 30.1951 15.3673 30.1951 14.5868 29.4146L2.58536 17.4132Z"
              fill="#EE513B"/>
        <path d="M12.1489 5.06152L10.9336 6.27686L14.0725 9.41577C13.9455 9.68819 13.8746 9.99201 13.8746 10.3124C13.8746 11.222 14.4461 11.9981 15.2496 12.3012V19.9798C14.4461 20.2829 13.8746 21.059 13.8746 21.9686C13.8746 23.1422 14.826 24.0936 15.9996 24.0936C17.1732 24.0936 18.1246 23.1422 18.1246 21.9686C18.1246 21.144 17.6549 20.429 16.9684 20.0768V12.3117L19.9689 15.3122C19.8481 15.5791 19.7809 15.8754 19.7809 16.1874C19.7809 17.361 20.7323 18.3124 21.9059 18.3124C23.0795 18.3124 24.0309 17.361 24.0309 16.1874C24.0309 15.0138 23.0795 14.0624 21.9059 14.0624C21.6778 14.0624 21.4582 14.0983 21.2522 14.1648L18.0297 10.9423C18.0914 10.7433 18.1246 10.5317 18.1246 10.3124C18.1246 9.13878 17.1732 8.18738 15.9996 8.18738C15.7803 8.18738 15.5688 8.22061 15.3697 8.2823L12.1489 5.06152Z"
              fill="white"/>
    </g>

    <g id="storybook">
        <path fill-rule="evenodd" clip-rule="evenodd"
              d="M11.438 55.604L9.70196 9.37595C9.64729 7.84929 10.8206 6.55729 12.3446 6.46395L43.1553 4.53729L45.5086 5.33329L48.5686 4.19862L51.6566 4.00529C53.2073 3.90662 54.5446 5.08395 54.6446 6.63462C54.6486 6.69462 54.65 6.75595 54.65 6.81729V57.1866C54.6486 58.7426 53.386 60.0026 51.83 60.0013C51.7886 60.0013 51.7473 60 51.7073 59.9986L14.126 58.3106C12.662 58.2453 11.494 57.0693 11.438 55.604Z"
              fill="#FF4081"/>
        <path fill-rule="evenodd" clip-rule="evenodd"
              d="M48.566 4.19873L43.1566 4.53473L42.894 10.8827C42.8846 11.1147 43.0646 11.3094 43.2966 11.3201C43.394 11.3241 43.4886 11.2947 43.566 11.2361L46.03 9.3654L48.1126 11.0067C48.294 11.1507 48.5593 11.1201 48.702 10.9387C48.7633 10.8601 48.7953 10.7627 48.7926 10.6627L48.5686 4.20006L48.566 4.19873ZM44.3553 25.4507C43.3673 26.2201 35.986 26.7441 35.986 25.6494C36.1433 21.4694 34.2726 21.2867 33.2313 21.2867C32.246 21.2867 30.582 21.5841 30.582 23.8241C30.582 26.1054 33.0126 27.3934 35.866 28.9054C39.918 31.0534 44.826 33.6547 44.826 40.1947C44.826 46.4667 39.73 49.9281 33.234 49.9281C26.5286 49.9281 20.6673 47.2147 21.3286 37.8094C21.5886 36.7067 30.1153 36.9694 30.1153 37.8094C30.0086 41.6907 30.894 42.8321 33.1286 42.8321C34.8446 42.8321 35.6233 41.8854 35.6233 40.2947C35.6233 37.8841 33.0926 36.4614 30.178 34.8267C26.2326 32.6121 21.59 30.0054 21.59 24.0214C21.59 18.0521 25.6953 14.0707 33.0246 14.0707C40.354 14.0707 44.3553 17.9921 44.3553 25.4507Z"
              fill="white"/>
    </g>

    <g id="star">
        <polygon style="fill:#c5f87dd1;" points="26.934,1.318 35.256,18.182 53.867,20.887 40.4,34.013 43.579,52.549 26.934,43.798
	10.288,52.549 13.467,34.013 0,20.887 18.611,18.182 "/>
    </g>

    <g id="placeholder">
        <path style="fill:#464866;" d="M38.853,5.324L38.853,5.324c-7.098-7.098-18.607-7.098-25.706,0h0
	C6.751,11.72,6.031,23.763,11.459,31L26,52l14.541-21C45.969,23.763,45.249,11.72,38.853,5.324z M26.177,24c-3.314,0-6-2.686-6-6
	s2.686-6,6-6s6,2.686,6,6S29.491,24,26.177,24z"/>
    </g>

    <g id="testimonial">
        <path d="M3035 5114 c-16 -2 -66 -9 -110 -15 -190 -24 -392 -88 -580 -181
-197 -97 -464 -298 -500 -375 -48 -100 32 -223 145 -223 53 0 93 24 205 121
184 160 454 284 728 336 126 23 417 24 542 1 341 -64 625 -214 865 -457 172
-175 295 -371 374 -600 66 -190 80 -279 80 -516 0 -178 -3 -225 -22 -311 -26
-121 -62 -232 -108 -337 -19 -43 -34 -92 -34 -110 0 -18 31 -205 70 -416 38
-212 68 -386 67 -388 -2 -1 -79 11 -172 28 -184 33 -217 33 -265 -8 -85 -71
-80 -188 11 -255 36 -27 611 -134 665 -123 51 9 110 68 119 119 6 28 -15 163
-82 526 l-89 487 29 69 c39 95 91 279 113 399 23 126 26 489 6 605 -57 319
-165 582 -342 833 -81 115 -296 333 -415 420 -243 179 -517 296 -815 348 -110
20 -410 34 -485 23z"/>
        <path d="M1875 4150 c-490 -55 -915 -259 -1260 -605 -584 -586 -765 -1463
-458 -2228 l35 -88 -97 -533 c-73 -397 -96 -544 -90 -572 9 -51 68 -110 119
-119 28 -6 175 18 571 90 l534 97 88 -35 c267 -107 548 -155 843 -144 541 21
1018 231 1400 617 485 489 693 1182 559 1857 -124 627 -533 1163 -1104 1450
-197 99 -402 166 -615 199 -116 18 -416 26 -525 14z m505 -335 c362 -64 690
-236 948 -496 315 -319 488 -715 509 -1164 31 -691 -362 -1346 -991 -1650
-444 -215 -964 -233 -1411 -49 -182 75 -125 77 -624 -15 -245 -44 -446 -79
-448 -78 -2 2 33 201 78 443 91 497 90 448 15 629 -216 526 -152 1141 169
1620 290 433 743 711 1265 775 106 13 378 4 490 -15z"/>
        <path d="M1014 2332 c-221 -79 -284 -358 -117 -526 120 -122 328 -122 448 0
62 64 90 134 90 229 0 90 -19 141 -80 213 -75 87 -227 125 -341 84z"/>
        <path d="M1974 2332 c-221 -79 -284 -358 -117 -526 120 -122 328 -122 448 0
62 64 90 134 90 229 0 90 -19 141 -80 213 -75 87 -227 125 -341 84z"/>
        <path d="M2934 2332 c-221 -79 -284 -358 -117 -526 120 -122 328 -122 448 0
62 64 90 134 90 229 0 90 -19 141 -80 213 -75 87 -227 125 -341 84z"/>
    </g>

    <g id="github">
        <path fill-rule="evenodd" clip-rule="evenodd"
              d="M48.854 0C21.839 0 0 22 0 49.217c0 21.756 13.993 40.172 33.405 46.69 2.427.49 3.316-1.059 3.316-2.362 0-1.141-.08-5.052-.08-9.127-13.59 2.934-16.42-5.867-16.42-5.867-2.184-5.704-5.42-7.17-5.42-7.17-4.448-3.015.324-3.015.324-3.015 4.934.326 7.523 5.052 7.523 5.052 4.367 7.496 11.404 5.378 14.235 4.074.404-3.178 1.699-5.378 3.074-6.6-10.839-1.141-22.243-5.378-22.243-24.283 0-5.378 1.94-9.778 5.014-13.2-.485-1.222-2.184-6.275.486-13.038 0 0 4.125-1.304 13.426 5.052a46.97 46.97 0 0 1 12.214-1.63c4.125 0 8.33.571 12.213 1.63 9.302-6.356 13.427-5.052 13.427-5.052 2.67 6.763.97 11.816.485 13.038 3.155 3.422 5.015 7.822 5.015 13.2 0 18.905-11.404 23.06-22.324 24.283 1.78 1.548 3.316 4.481 3.316 9.126 0 6.6-.08 11.897-.08 13.526 0 1.304.89 2.853 3.316 2.364 19.412-6.52 33.405-24.935 33.405-46.691C97.707 22 75.788 0 48.854 0z"
              fill="currentColor"/>
    </g>

    <g id="linked">
        <path fill="currentColor"
              d="M41,4H9C6.24,4,4,6.24,4,9v32c0,2.76,2.24,5,5,5h32c2.76,0,5-2.24,5-5V9C46,6.24,43.76,4,41,4z M17,20v19h-6V20H17z M11,14.47c0-1.4,1.2-2.47,3-2.47s2.93,1.07,3,2.47c0,1.4-1.12,2.53-3,2.53C12.2,17,11,15.87,11,14.47z M39,39h-6c0,0,0-9.26,0-10 c0-2-1-4-3.5-4.04h-0.08C27,24.96,26,27.02,26,29c0,0.91,0,10,0,10h-6V20h6v2.56c0,0,1.93-2.56,5.81-2.56 c3.97,0,7.19,2.73,7.19,8.26V39z"/>
    </g>

    <g id="arrow_up">
        <path d="M7.33199 7.68464C6.94146 8.07517 6.3083 8.07517 5.91777 7.68464C5.52725 7.29412 5.52725 6.66095 5.91777 6.27043L10.5834 1.60483C11.3644 0.823781 12.6308 0.82378 13.4118 1.60483L18.0802 6.27327C18.4707 6.66379 18.4707 7.29696 18.0802 7.68748C17.6897 8.078 17.0565 8.078 16.666 7.68748L13 4.02145V21.9999C13 22.5522 12.5523 22.9999 12 22.9999C11.4477 22.9999 11 22.5522 11 21.9999V4.01666L7.33199 7.68464Z"
              fill="#fff"/>
    </g>

    <g id='styled' xmlns="http://www.w3.org/2000/svg">
        <title>file_type_styled</title>
        <path d="M18.05,29.6c.042-.095.148-.161.225-.241,1.175-1.232,2.36-2.453,3.519-3.7A3.2,3.2,0,0,0,22.808,23a5.925,5.925,0,0,0-.143-.624c-.316.3-.61.573-.906.848-.46.428-.918.858-1.382,1.281a1.931,1.931,0,0,1-2.148.419,1.973,1.973,0,0,1-1.29-1.75,1.04,1.04,0,0,0-.043-.146c-.353.3-.691.576-1.026.86l-6.963,5.9c-.048.041-.1.092-.145.132h9.283l-.014-.009C17.981,29.876,18.007,29.692,18.05,29.6Z"
              style="fill:#ffcebf"/>
        <path d="M8.337,29.6a1.239,1.239,0,0,1,.295-.276l9.636-8.175q.986-.837,1.963-1.683a.523.523,0,0,0,.182-.224,5.364,5.364,0,0,0,.065-2.069c-.1.07-.154.1-.2.149-.789.706-1.574,1.418-2.367,2.12a1.762,1.762,0,0,1-2.048.329,1.889,1.889,0,0,1-1.08-1.807c0-.085,0-.169,0-.324-.145.106-.251.177-.35.257Q8.648,22.529,2.865,27.154c-.174.139-.382.449-.61.148s.119-.425.294-.565q6.165-4.947,12.336-9.885c.67-.537.714-.762.278-1.615l-.26.244c-.713.663-1.434,1.317-2.136,1.991a2.121,2.121,0,0,1-3.585-1.337c-.133.1-.248.173-.357.258l-6.1,4.728a1.485,1.485,0,0,1-.356.258.446.446,0,0,1-.3-.015v8.561H8.325A.365.365,0,0,1,8.337,29.6Z"
              style="fill:#ffcebf"/>
        <path d="M25.237,2.423c-.17.557-.335,1.115-.484,1.678a1.688,1.688,0,0,0,.9,2.09,7.122,7.122,0,0,0,3.818.8V2.518a.73.73,0,0,1,.016-.294.666.666,0,0,1,.105-.149H25.233C25.3,2.153,25.277,2.29,25.237,2.423Z"
              style="fill:#ff6196"/>
        <path d="M16.482,12.032a2.422,2.422,0,0,1-.5,1.376A22.671,22.671,0,0,1,12.256,17.2a1.442,1.442,0,0,1-1.684.2,1.393,1.393,0,0,1-.843-1.368,1.624,1.624,0,0,1,.417-.947,35.848,35.848,0,0,1,5.019-3.993.71.71,0,0,1,.829-.034A1.041,1.041,0,0,1,16.482,12.032Z"
              style="fill:#ff87af"/>
        <path d="M15.284,18.093a1.437,1.437,0,0,1,.448-1.2,38.336,38.336,0,0,1,4.87-3.813c.052-.033.1-.066.157-.1a.837.837,0,0,1,1.025.035.861.861,0,0,1,.242.979,4.39,4.39,0,0,1-1.168,1.908c-1.105,1.1-2.252,2.164-3.4,3.22a1.124,1.124,0,0,1-1.364.192A1.512,1.512,0,0,1,15.284,18.093Z"
              style="fill:#ff87af"/>
        <path d="M22.5,18.754c-.28.3-.568.586-.837.893a1.89,1.89,0,0,0-.2.38c.148.044.321.16.441.119.611-.205,1.207-.451,1.878-.71-.146.336-.256.646-.411.93A12.189,12.189,0,0,1,21,23.238q-.532.513-1.105.981a1.484,1.484,0,0,1-2.415-.92,1.1,1.1,0,0,1,.238-.813,22.187,22.187,0,0,1,4.623-3.823.193.193,0,0,1,.065-.013Z"
              style="fill:#ff87af"/>
        <path d="M24.794,14.771l1.711-7.6,1.2.281-.619,1.881c-.578,1.75-1.163,3.5-1.727,5.252C25.249,14.909,25.105,14.969,24.794,14.771Z"
              style="fill:#ff6196"/>
        <path d="M22.862,19.241c.181-.691.361-1.33.513-1.976a4.468,4.468,0,0,1,.826-1.721c.243-.319.516-.192.795-.123.258.063.323.252.334.5a2.845,2.845,0,0,1-.588,1.907A4.8,4.8,0,0,1,22.862,19.241Z"
              style="fill:#ff6196"/>
        <path d="M29.993,2.894a3.623,3.623,0,0,0-.017-.668.291.291,0,0,0-.116-.151A.381.381,0,0,0,29.708,2c-.032-.006-.077.027-.12.074a.666.666,0,0,0-.105.149.73.73,0,0,0-.016.294V6.989a7.122,7.122,0,0,1-3.818-.8,1.688,1.688,0,0,1-.9-2.09c.149-.563.314-1.121.484-1.678.04-.133.063-.27,0-.348a.2.2,0,0,0-.135-.064.3.3,0,0,0-.182.064.434.434,0,0,0-.171.19c-.2.6-.376,1.206-.529,1.818a2.148,2.148,0,0,0-.046.737,2.339,2.339,0,0,0,1.542,2c.189.079.3.157.247.406-.073.316-.144.632-.216.949q-.735,3.222-1.462,6.447a.483.483,0,0,1-.121.257,3.228,3.228,0,0,0-.791.92,4.8,4.8,0,0,0-.53,1.5.981.981,0,0,1-.558.785c-.417.211-.8.484-1.263.768A12.639,12.639,0,0,0,21,17.179a1.062,1.062,0,0,1,.284-.96,4.75,4.75,0,0,0,1.258-2.194,1.294,1.294,0,0,0-1.208-1.7,1.7,1.7,0,0,0-.929.264c-.957.646-1.888,1.332-2.812,2.026-.547.412-1.062.868-1.592,1.3a.418.418,0,0,1-.059-.081.842.842,0,0,0-.059-.214c-.443-.684-.136-1.181.345-1.692A2.793,2.793,0,0,0,17,11.977a1.568,1.568,0,0,0-.327-1.026,1.459,1.459,0,0,0-.438-.363,1.337,1.337,0,0,0-1.517.162l-.279.2c-.637.456-1.282.9-1.895,1.388-.895.712-1.769,1.454-2.626,2.214-.4.353-.692.835-1.107,1.163-2.164,1.709-4.351,3.387-6.53,5.076a1.022,1.022,0,0,0-.205.161.164.164,0,0,0-.016.029c-.046.107-.085.284-.031.349a.141.141,0,0,0,.047.033.446.446,0,0,0,.3.015,1.485,1.485,0,0,0,.356-.258l6.1-4.728c.109-.085.224-.162.357-.258a2.121,2.121,0,0,0,3.585,1.337c.7-.674,1.423-1.328,2.136-1.991l.26-.244c.436.853.392,1.078-.278,1.615Q8.716,21.793,2.549,26.737c-.175.14-.521.267-.294.565s.436-.009.61-.148Q8.651,22.533,14.429,17.9c.1-.08.205-.151.35-.257,0,.155,0,.239,0,.324a1.889,1.889,0,0,0,1.08,1.807,1.762,1.762,0,0,0,2.048-.329c.793-.7,1.578-1.414,2.367-2.12.05-.045.108-.079.2-.149a5.364,5.364,0,0,1-.065,2.069.523.523,0,0,1-.182.224q-.978.845-1.963,1.683L8.632,29.328a1.239,1.239,0,0,0-.295.276.365.365,0,0,0-.012.321v0a.376.376,0,0,0,.32.063.294.294,0,0,0,.116-.065c.05-.04.1-.091.145-.132l6.963-5.9c.335-.284.673-.564,1.026-.86a1.04,1.04,0,0,1,.043.146,1.973,1.973,0,0,0,1.29,1.75,1.931,1.931,0,0,0,2.148-.419c.464-.423.922-.853,1.382-1.281.3-.275.59-.551.906-.848a5.925,5.925,0,0,1,.143.624,3.2,3.2,0,0,1-1.014,2.649c-1.159,1.248-2.344,2.469-3.519,3.7-.077.08-.183.146-.225.241s-.069.281-.019.321l.014.009a.573.573,0,0,0,.338.051.136.136,0,0,0,.081-.051c.028-.029.055-.065.082-.092.952-.984,1.909-1.963,2.854-2.954a13.982,13.982,0,0,0,1.074-1.223,3.411,3.411,0,0,0,.61-3.616.516.516,0,0,1,.074-.386c.065-.112.137-.221.211-.329a4.632,4.632,0,0,0,.587-1,7.547,7.547,0,0,1,1.339-2.4,2.792,2.792,0,0,0,.5-2.469.988.988,0,0,1,0-.489c.506-1.567,1.027-3.129,1.543-4.692q.347-1.05.69-2.094l.213-.647c.454,0,.882-.009,1.308,0,.354.01.462-.156.458-.5C29.985,5.652,29.993,4.273,29.993,2.894ZM12.256,17.2a1.442,1.442,0,0,1-1.684.2,1.393,1.393,0,0,1-.843-1.368,1.624,1.624,0,0,1,.417-.947,35.848,35.848,0,0,1,5.019-3.993.852.852,0,0,1,.326-.14.656.656,0,0,1,.238,0,.763.763,0,0,1,.265.106,1.041,1.041,0,0,1,.488.975,2.422,2.422,0,0,1-.5,1.376A22.671,22.671,0,0,1,12.256,17.2Zm5.2,1.929a1.124,1.124,0,0,1-1.364.192,1.512,1.512,0,0,1-.81-1.224,1.437,1.437,0,0,1,.448-1.2,38.336,38.336,0,0,1,4.87-3.813c.052-.033.1-.066.157-.1a.837.837,0,0,1,1.025.035.861.861,0,0,1,.242.979,4.39,4.39,0,0,1-1.168,1.908C19.753,17.008,18.606,18.069,17.458,19.125Zm5.911,1.241A12.189,12.189,0,0,1,21,23.238q-.532.513-1.105.981a1.484,1.484,0,0,1-2.415-.92,1.1,1.1,0,0,1,.238-.813,22.187,22.187,0,0,1,4.623-3.823.193.193,0,0,1,.065-.013l.1.1c-.28.3-.568.586-.837.893a1.89,1.89,0,0,0-.2.38c.148.044.321.16.441.119.483-.162.958-.35,1.467-.55l.411-.16C23.634,19.772,23.524,20.082,23.369,20.366Zm1.373-2.535a4.363,4.363,0,0,1-1.373,1.152q-.247.138-.507.258c.178-.681.356-1.312.507-1.95l.006-.026a4.468,4.468,0,0,1,.826-1.721c.243-.319.516-.192.795-.123.258.063.323.252.334.5A2.845,2.845,0,0,1,24.742,17.831Zm2.34-8.5c-.578,1.75-1.163,3.5-1.727,5.252-.106.329-.25.389-.561.191l1.483-6.593.228-1.012,1.2.281c-.082.247-.161.49-.241.731Z"/>
    </g>

    <g id="firebase">
        <path d="M0,282.99762 L2.12250746,280.0256 L102.527363,89.5119284 L102.739423,87.4951323 L58.478806,4.35817711 C54.7706269,-2.60604179 44.3313035,-0.845245771 43.1143483,6.95065473 L0,282.99762 Z"
              fill="#FFC24A">

        </path>

        <path d="M135.004975,150.380704 L167.960199,116.629461 L134.995423,53.6993114 C131.866109,47.7425353 123.128817,47.7253411 120.032618,53.6993112 L102.421015,87.2880848 L102.421015,90.1487443 L135.004975,150.380704 Z"
              fill="#F4BD62">

        </path>

        <polygon fill="#F6820C"
                 points="0 282.99762 0.962097168 282.030396 4.45771144 280.60956 132.935323 152.60956 134.563025 148.178595 102.513123 87.1048584">

        </polygon>
        <path d="M139.120971,347.551268 L255.395916,282.703666 L222.191698,78.2093373 C221.153051,71.8112478 213.303658,69.2818149 208.724314,73.8694368 L0.000254726368,282.997875 L115.608454,347.545536 C122.914643,351.624979 131.812872,351.62689 139.120971,347.551268"
              fill="#FDE068">

        </path>
        <path d="M254.354084,282.159837 L221.401937,79.2179369 C220.371175,72.8684188 213.843792,70.2409553 209.299213,74.79375 L1.28945312,282.600785 L115.627825,346.509458 C122.878548,350.557931 131.709226,350.559827 138.961846,346.515146 L254.354084,282.159837 Z"
              fill="#FCCA3F">

        </path>
        <path d="M139.120907,345.64082 C131.812808,349.716442 122.914579,349.714531 115.60839,345.635089 L0.93134768,282.014551 L0.000191044776,282.997875 L115.60839,347.545536 C122.914579,351.624979 131.812808,351.62689 139.120907,347.551268 L255.395853,282.703666 L255.111196,280.951785 L139.120907,345.64082 Z"
              fill="#EEAB37">

        </path>
    </g>

    <g id='material' xmlns="http://www.w3.org/2000/svg">

        <polygon fill="#00B0FF" points="0 110.848 0 0 96 55.424 96 92.3733333 32 55.424 32 129.322667">

        </polygon>
        <polygon fill="#0081CB"
                 points="96 55.424 192 0 192 110.848 128 147.797333 96 129.322667 160 92.3733333 160 55.424 96 92.3733333">

        </polygon>
        <polygon fill="#00B0FF" points="96 129.322667 96 166.272 160 203.221333 160 166.272">

        </polygon>
        <path d="M160,203.221333 L256,147.797333 L256,73.8986667 L224,92.3733333 L224,129.322667 L160,166.272 L160,203.221333 Z M224,55.424 L224,18.4746667 L256,5.68434189e-14 L256,36.9493333 L224,55.424 Z"
              fill="#0081CB">

        </path>
    </g>

    <g id="sass" xmlns="http://www.w3.org/2000/svg">
        <title>file_type_sass</title>
        <path d="M26.11,17.572a5.8,5.8,0,0,0-2.537.588,5.345,5.345,0,0,1-.568-1.314,3.53,3.53,0,0,1-.051-1.1,9.811,9.811,0,0,1,.332-1.192c-.005-.051-.061-.292-.624-.3s-1.048.107-1.1.256a6.171,6.171,0,0,0-.235.834,19.686,19.686,0,0,1-1.713,3.294,3.186,3.186,0,0,1-.44-2.066,9.811,9.811,0,0,1,.332-1.192c-.005-.051-.061-.292-.624-.3s-1.048.107-1.1.256-.118.5-.235.834-1.483,3.386-1.841,4.173c-.184.4-.343.726-.455.946h0a.233.233,0,0,1-.02.041c-.1.189-.153.292-.153.292v.005c-.077.138-.159.266-.2.266a1.711,1.711,0,0,1,.01-.869c.2-1.059.69-2.705.685-2.762,0-.031.092-.317-.317-.465a.508.508,0,0,0-.578.1c-.036,0-.061.087-.061.087s.445-1.851-.849-1.851a3.855,3.855,0,0,0-2.475,1.683c-.348.189-1.089.593-1.882,1.028-.3.169-.614.338-.905.5-.02-.02-.041-.046-.061-.066C6.87,17.6,3.975,16.416,4.1,14.171c.046-.818.327-2.966,5.559-5.575,4.306-2.122,7.733-1.534,8.326-.23.849,1.862-1.836,5.319-6.285,5.82a3.351,3.351,0,0,1-2.813-.711c-.235-.256-.271-.271-.358-.22-.143.077-.051.307,0,.44a2.626,2.626,0,0,0,1.606,1.263,8.55,8.55,0,0,0,5.217-.517c2.7-1.043,4.8-3.943,4.184-6.372-.619-2.465-4.71-3.278-8.582-1.9A19.5,19.5,0,0,0,4.359,9.952c-2.133,1.995-2.47,3.728-2.332,4.455.5,2.578,4.051,4.255,5.472,5.5-.072.041-.138.077-.194.107-.711.353-3.421,1.77-4.1,3.268-.767,1.7.123,2.915.711,3.079a4.374,4.374,0,0,0,4.71-1.908A4.725,4.725,0,0,0,9.049,20.1a.107.107,0,0,0-.02-.031l.557-.327c.363-.215.721-.414,1.028-.578a6.74,6.74,0,0,0-.363,1.862,3.886,3.886,0,0,0,.834,2.7.921.921,0,0,0,.675.22c.6,0,.875-.5,1.176-1.094.368-.726.7-1.57.7-1.57s-.414,2.281.711,2.281c.409,0,.823-.532,1.008-.8v.005s.01-.015.031-.051l.066-.107v-.01c.164-.286.532-.936,1.079-2.015.706-1.391,1.386-3.13,1.386-3.13a8.888,8.888,0,0,0,.271,1.13,10.643,10.643,0,0,0,.583,1.309c-.164.23-.266.358-.266.358l.005.005c-.133.174-.276.363-.435.547a16.3,16.3,0,0,0-1.314,1.647.447.447,0,0,0,.123.6,1.116,1.116,0,0,0,.685.113,3.147,3.147,0,0,0,1.028-.235,3.45,3.45,0,0,0,.885-.465,1.98,1.98,0,0,0,.849-1.744,3.521,3.521,0,0,0-.322-1.233c.051-.072.1-.143.148-.215a23.428,23.428,0,0,0,1.534-2.649,8.888,8.888,0,0,0,.271,1.13,7.57,7.57,0,0,0,.5,1.125A4.861,4.861,0,0,0,20.965,20.8c-.322.931-.072,1.35.4,1.447a1.425,1.425,0,0,0,.747-.153,3.4,3.4,0,0,0,.946-.486,2.126,2.126,0,0,0,1.043-1.729,3.268,3.268,0,0,0-.235-1.023,5.356,5.356,0,0,1,2.716-.312c2.434.286,2.915,1.805,2.823,2.445a1.618,1.618,0,0,1-.772,1.094c-.169.107-.225.143-.21.22.02.113.1.107.245.087A1.9,1.9,0,0,0,30,20.7c.077-1.5-1.355-3.145-3.887-3.13ZM7.33,23.9c-.808.88-1.933,1.212-2.419.931-.522-.3-.317-1.6.675-2.532a12.884,12.884,0,0,1,1.9-1.417c.118-.072.292-.174.5-.3l.056-.031h0l.123-.077A3.493,3.493,0,0,1,7.33,23.9Zm5.881-4c-.281.685-.869,2.44-1.227,2.342-.307-.082-.5-1.412-.061-2.726a6.193,6.193,0,0,1,.956-1.754c.44-.491.926-.655,1.043-.455a9.062,9.062,0,0,1-.711,2.593Zm4.853,2.322c-.118.061-.23.1-.281.072-.036-.02.051-.1.051-.1s.609-.655.849-.951c.138-.174.3-.378.476-.609V20.7c0,.782-.757,1.309-1.094,1.524Zm3.744-.854c-.087-.061-.072-.266.22-.905a3.408,3.408,0,0,1,.834-1.074,1.448,1.448,0,0,1,.082.471,1.547,1.547,0,0,1-1.135,1.509Z"
              style="fill:#cd6799"/>
    </g>

    <g  id='eslint' xmlns="http://www.w3.org/2000/svg">
        <title>file_type_eslint</title>
        <path d="M29.832,16.7,23.478,27.417A1.256,1.256,0,0,1,22.36,28H9.647a1.262,1.262,0,0,1-1.118-.59L2.173,16.71a1.256,1.256,0,0,1,0-1.272L8.527,4.676A1.344,1.344,0,0,1,9.647,4H22.356a1.344,1.344,0,0,1,1.118.678l6.354,10.786a1.2,1.2,0,0,1,0,1.238ZM24.57,20.9V11.286L16,6.466l-8.56,4.82V20.9L16,25.719Z"
              style="fill:#4b32c3"/>
        <polygon points="21.802 19.188 16.055 22.423 10.313 19.188 10.313 12.718 16.055 9.482 21.802 12.718 21.802 19.188"
                 style="fill:#8080f2"/>
    </g>

    <g id="postman">
            <path d="M254.953118,144.253071 C263.911504,74.1217108 214.38443,10.0052669 144.381048,1.04688158 C74.3776647,-7.9115038 10.0052669,41.6155696 1.04688158,111.618952 C-7.9115038,181.622335 41.6155696,245.866756 111.618952,254.953118 C181.750312,263.911504 245.866756,214.38443 254.953118,144.253071 Z"
                  fill="#FF6C37">

            </path>
            <g transform="translate(50.181225, 45.198924)">
                <path d="M124.018448,36.9853339 L70.012182,90.9916 L54.7829269,75.7623449 C107.893354,22.6519173 113.140409,27.2590869 124.018448,36.9853339 L124.018448,36.9853339 Z"
                      fill="#FFFFFF">

                </path>
                <path d="M70.012182,92.2713693 C69.6282512,92.2713693 69.3722974,92.1433924 69.1163435,91.8874385 L53.7591114,76.6581834 C53.2472037,76.1462757 53.2472037,75.3784141 53.7591114,74.8665063 C107.765378,20.8602402 113.396363,25.9793176 124.78631,36.2174723 C125.042264,36.4734262 125.170241,36.72938 125.170241,37.1133108 C125.170241,37.4972416 125.042264,37.7531955 124.78631,38.0091494 L70.7800436,91.8874385 C70.6520667,92.1433924 70.2681359,92.2713693 70.012182,92.2713693 Z M56.574604,75.7623449 L70.012182,89.1999229 L122.098794,37.1133108 C112.628501,28.6668332 106.229654,26.1072945 56.574604,75.7623449 L56.574604,75.7623449 Z"
                      fill="#FF6C37">

                </path>
                <path d="M85.497391,106.476809 L70.7800436,91.7594616 L124.78631,37.7531955 C139.247703,52.342566 117.619601,76.0182987 85.497391,106.476809 Z"
                      fill="#FFFFFF">

                </path>
                <path d="M85.497391,107.756578 C85.1134602,107.756578 84.8575064,107.628601 84.6015525,107.372648 L69.8842051,92.6553001 C69.6282512,92.3993463 69.6282512,92.1433924 69.6282512,91.7594616 C69.6282512,91.3755308 69.7562282,91.1195769 70.012182,90.8636231 L124.018448,36.857357 C124.530356,36.3454492 125.298217,36.3454492 125.810125,36.857357 C129.137525,39.9288034 130.929203,44.2800191 130.801226,48.7592118 C130.545272,62.9646515 114.420178,81.0093992 86.5212065,107.372648 C86.1372757,107.628601 85.7533449,107.756578 85.497391,107.756578 L85.497391,107.756578 Z M72.5717207,91.7594616 C80.7622445,100.077962 84.2176217,103.405363 85.497391,104.685132 C106.997516,84.2088225 127.857756,63.2206053 127.985733,48.7592118 C128.11371,45.4318115 126.833941,42.1044113 124.658333,39.5448726 L72.5717207,91.7594616 Z"
                      fill="#FF6C37">

                </path>
                <path d="M55.0388808,76.1462757 L65.9169201,87.024315 C66.172874,87.2802689 66.172874,87.5362228 65.9169201,87.7921767 C65.7889432,87.9201536 65.7889432,87.9201536 65.6609663,87.9201536 L43.1370259,92.7832771 C41.9852335,92.911254 40.961418,92.1433924 40.7054642,90.9916 C40.5774872,90.3517153 40.8334411,89.7118307 41.2173719,89.3278999 L54.2710192,76.2742526 C54.526973,76.0182987 54.9109038,75.8903218 55.0388808,76.1462757 Z"
                      fill="#FFFFFF">

                </path>
                <path d="M42.7530951,94.0630464 C40.8334411,94.0630464 39.4256948,92.5273232 39.4256948,90.6076692 C39.4256948,89.7118307 39.8096256,88.8159921 40.4495103,88.1761075 L53.5031576,75.1224602 C54.2710192,74.4825755 55.2948346,74.4825755 56.0626962,75.1224602 L66.9407356,86.0004996 C67.7085972,86.6403842 67.7085972,87.7921767 66.9407356,88.5600383 C66.6847817,88.8159921 66.4288279,88.9439691 66.0448971,89.071946 L43.5209567,93.9350695 C43.2650028,93.9350695 43.009049,94.0630464 42.7530951,94.0630464 L42.7530951,94.0630464 Z M54.65495,77.5540219 L42.1132104,90.0957615 C41.8572566,90.3517153 41.7292796,90.7356461 41.9852335,91.1195769 C42.1132104,91.5035077 42.4971412,91.6314847 42.881072,91.5035077 L63.9972661,86.8963381 L54.65495,77.5540219 Z"
                      fill="#FF6C37">

                </path>
                <path d="M152.557304,7.03873136 C144.366781,-0.895838537 131.185156,-0.639884669 123.250587,7.67861603 C115.316017,15.9971167 115.57197,29.050764 123.890471,36.9853339 C130.673249,43.5121575 140.911403,44.6639499 148.97395,39.8008264 L134.38458,25.211456 L152.557304,7.03873136 Z"
                      fill="#FFFFFF">

                </path>
                <path d="M138.223888,44.0240653 C126.066079,44.0240653 116.211855,34.1698413 116.211855,22.0120326 C116.211855,9.85422391 126.066079,-1.81866161e-14 138.223888,-1.81866161e-14 C143.854873,-1.81866161e-14 149.357881,2.17560788 153.453143,6.14289283 C153.709097,6.39884669 153.837074,6.65480056 153.837074,7.03873136 C153.837074,7.42266217 153.709097,7.67861603 153.453143,7.9345699 L136.176257,25.211456 L149.741812,38.777011 C150.25372,39.2889187 150.25372,40.0567803 149.741812,40.568688 C149.613835,40.696665 149.613835,40.696665 149.485858,40.8246419 C146.158458,42.8722729 142.191173,44.0240653 138.223888,44.0240653 Z M138.223888,2.68751561 C127.473825,2.68751561 118.771394,11.3899471 118.899371,22.1400096 C118.899371,32.890072 127.601802,41.5925035 138.351865,41.4645266 C141.295334,41.4645266 144.238804,40.8246419 146.926319,39.4168956 L133.488741,26.1072945 C133.232787,25.8513406 133.10481,25.5953868 133.10481,25.211456 C133.10481,24.8275252 133.232787,24.5715713 133.488741,24.3156174 L150.63765,7.1667083 C147.182273,4.22323882 142.831057,2.68751561 138.223888,2.68751561 L138.223888,2.68751561 Z"
                      fill="#FF6C37">

                </path>
                <path d="M152.941235,7.42266217 L152.685281,7.1667083 L134.38458,25.211456 L148.845973,39.6728495 C150.25372,38.777011 151.661466,37.7531955 152.813258,36.6014031 C161.003782,28.5388563 161.003782,15.485209 152.941235,7.42266217 L152.941235,7.42266217 Z"
                      fill="#FFFFFF">

                </path>
                <path d="M148.97395,41.0805958 C148.590019,41.0805958 148.334066,40.9526188 148.078112,40.696665 L133.488741,26.1072945 C133.232787,25.8513406 133.10481,25.5953868 133.10481,25.211456 C133.10481,24.8275252 133.232787,24.5715713 133.488741,24.3156174 L151.661466,6.14289283 C152.173374,5.63098509 152.941235,5.63098509 153.453143,6.14289283 L153.837074,6.39884669 C162.411528,14.9733013 162.411528,28.7948101 153.965051,37.4972416 C152.685281,38.777011 151.277535,39.9288034 149.741812,40.8246419 C149.357881,40.9526188 149.101927,41.0805958 148.97395,41.0805958 L148.97395,41.0805958 Z M136.176257,25.211456 L149.101927,38.1371263 C150.125743,37.4972416 151.149558,36.6014031 151.91742,35.8335415 C159.212105,28.5388563 159.596036,16.6370014 152.557304,8.95838537 L136.176257,25.211456 Z"
                      fill="#FF6C37">

                </path>
                <path d="M126.194056,39.2889187 C123.12261,36.2174723 118.131509,36.2174723 115.060063,39.2889187 L66.8127587,87.5362228 L74.8753055,95.5987696 L125.938102,50.8068428 C129.265502,47.9913502 129.521456,43.0002498 126.705964,39.6728495 C126.45001,39.5448726 126.322033,39.4168956 126.194056,39.2889187 L126.194056,39.2889187 Z"
                      fill="#FFFFFF">

                </path>
                <path d="M74.7473286,96.878539 C74.3633978,96.878539 74.1074439,96.750562 73.85149,96.4946082 L65.7889432,88.4320613 C65.2770355,87.9201536 65.2770355,87.152292 65.7889432,86.6403842 L114.036247,38.3930802 C117.619601,34.809726 123.378563,34.809726 126.961918,38.3930802 C130.545272,41.9764343 130.545272,47.7353963 126.961918,51.3187505 C126.833941,51.4467274 126.705964,51.5747044 126.577987,51.7026813 L75.5151902,96.4946082 C75.3872133,96.750562 75.1312594,96.878539 74.7473286,96.878539 L74.7473286,96.878539 Z M68.6044358,87.5362228 L74.8753055,93.8070925 L125.042264,49.7830273 C127.857756,47.4794425 128.11371,43.2562037 125.810125,40.4407111 C123.50654,37.6252186 119.283302,37.3692647 116.467809,39.6728495 C116.339832,39.8008264 116.211855,39.9288034 115.955901,40.0567803 L68.6044358,87.5362228 Z"
                      fill="#FF6C37">

                </path>
                <path d="M29.8274248,142.438327 C29.3155171,142.694281 29.0595632,143.206189 29.1875401,143.718097 L31.363148,152.932436 C31.8750557,154.212205 31.1071941,155.747929 29.6994479,156.131859 C28.6756324,156.51579 27.52384,156.131859 26.8839553,155.363998 L12.8064926,141.414512 L58.7502118,95.4707927 L74.6193516,95.7267466 L85.3694141,106.476809 C82.8098754,108.652417 67.3246664,123.625718 29.8274248,142.438327 L29.8274248,142.438327 Z"
                      fill="#FFFFFF">

                </path>
                <path d="M28.8036093,157.411629 C27.7797938,157.411629 26.7559784,157.027698 26.1160937,156.259836 L12.1666079,142.31035 C11.910654,142.054397 11.7826771,141.798443 11.7826771,141.414512 C11.7826771,141.030581 11.910654,140.774627 12.1666079,140.518673 L58.1103272,94.5749541 C58.366281,94.3190003 58.7502118,94.1910233 59.0061657,94.1910233 L74.8753055,94.4469772 C75.2592363,94.4469772 75.5151902,94.5749541 75.7711441,94.830908 L86.5212065,105.58097 C86.7771604,105.836924 86.9051373,106.220855 86.9051373,106.604786 C86.9051373,106.988717 86.7771604,107.244671 86.3932296,107.500624 L85.497391,108.268486 C71.931836,120.170341 53.5031576,132.072196 30.5952864,143.462143 L32.7708943,152.548505 C33.1548251,154.212205 32.3869635,156.003882 30.8512403,156.899721 C30.0833787,157.283652 29.443494,157.411629 28.8036093,157.411629 Z M14.7261466,141.414512 L27.9077708,154.468159 C28.2917016,155.108044 29.0595632,155.363998 29.6994479,154.980067 C30.3393325,154.596136 30.5952864,153.828275 30.2113556,153.18839 L28.0357477,143.974051 C27.7797938,142.822258 28.2917016,141.798443 29.3155171,141.286535 C51.9674343,129.896588 70.2681359,118.12271 83.705714,106.476809 L74.2354208,97.0065159 L59.5180734,96.750562 L14.7261466,141.414512 Z"
                      fill="#FF6C37">

                </path>
                <path d="M1.9284532,152.420528 L12.9344695,141.414512 L29.3155171,157.795559 L3.20822254,156.003882 C2.05643013,155.875905 1.28856853,154.85209 1.41654546,153.700298 C1.41654546,153.18839 1.5445224,152.676482 1.9284532,152.420528 L1.9284532,152.420528 Z"
                      fill="#FFFFFF">

                </path>
                <path d="M29.3155171,158.947352 L3.0802456,157.155675 C1.16059159,157.027698 -0.119177745,155.363998 0.00879918845,153.444344 C0.136776122,152.676482 0.39272999,151.908621 1.03261466,151.396713 L12.038631,140.390696 C12.5505387,139.878789 13.3184003,139.878789 13.830308,140.390696 L30.2113556,156.771744 C30.5952864,157.155675 30.7232633,157.667583 30.4673095,158.17949 C30.2113556,158.691398 29.8274248,158.947352 29.3155171,158.947352 L29.3155171,158.947352 Z M12.9344695,143.206189 L2.82429173,153.316367 C2.44036093,153.572321 2.44036093,154.212205 2.82429173,154.468159 C2.95226867,154.596136 3.0802456,154.724113 3.33619947,154.724113 L25.9881168,156.259836 L12.9344695,143.206189 Z"
                      fill="#FF6C37">

                </path>
                <path d="M54.2710192,101.357732 C53.5031576,101.357732 52.9912498,100.717847 52.9912498,100.077962 C52.9912498,99.6940315 53.1192268,99.4380776 53.3751806,99.1821238 L65.7889432,86.7683612 C66.3008509,86.2564534 67.0687125,86.2564534 67.5806203,86.7683612 L75.6431671,94.830908 C76.0270979,95.2148388 76.1550749,95.5987696 76.0270979,96.1106774 C75.899121,96.4946082 75.5151902,96.878539 75.0032825,97.0065159 L54.526973,101.357732 C54.3989961,101.357732 54.2710192,101.357732 54.2710192,101.357732 L54.2710192,101.357732 Z M66.6847817,89.4558768 L58.2383041,97.9023544 L72.059813,94.9588849 L66.6847817,89.4558768 Z"
                      fill="#FF6C37">

                </path>
                <path d="M74.6193516,95.7267466 L60.5418889,98.798193 C59.5180734,99.0541468 58.494258,98.4142622 58.2383041,97.3904467 C58.1103272,96.750562 58.2383041,96.1106774 58.7502118,95.5987696 L66.5568048,87.7921767 L74.6193516,95.7267466 Z"
                      fill="#FFFFFF">

                </path>
                <path d="M60.2859351,100.077962 C58.494258,100.077962 57.0865117,98.670216 57.0865117,96.878539 C57.0865117,95.9827004 57.4704425,95.2148388 57.9823502,94.5749541 L65.7889432,86.7683612 C66.3008509,86.2564534 67.0687125,86.2564534 67.5806203,86.7683612 L75.6431671,94.830908 C76.0270979,95.2148388 76.1550749,95.5987696 76.0270979,96.1106774 C75.899121,96.4946082 75.5151902,96.878539 75.0032825,97.0065159 L60.9258197,100.077962 C60.6698659,100.077962 60.413912,100.077962 60.2859351,100.077962 L60.2859351,100.077962 Z M66.6847817,89.4558768 L59.7740273,96.3666312 C59.5180734,96.6225851 59.5180734,96.878539 59.6460504,97.1344928 C59.7740273,97.3904467 60.0299812,97.5184236 60.413912,97.5184236 L72.1877899,94.9588849 L66.6847817,89.4558768 Z"
                      fill="#FF6C37">

                </path>
                <path d="M153.069212,19.7084478 C152.813258,18.9405862 151.91742,18.5566554 151.149558,18.8126093 C150.381697,19.0685632 149.997766,19.9644017 150.25372,20.7322633 C150.25372,20.8602402 150.381697,20.9882172 150.381697,21.1161941 C151.149558,22.6519173 150.893604,24.5715713 149.869789,25.9793176 C149.357881,26.6192023 149.485858,27.5150408 149.997766,28.0269485 C150.63765,28.5388563 151.533489,28.4108793 152.045397,27.7709947 C153.965051,25.3394329 154.348981,22.2679865 153.069212,19.7084478 L153.069212,19.7084478 Z"
                      fill="#FF6C37">

                </path>
            </g>
        </g>

    <g id="telegram">
        <path d="M21.997 12C21.997 17.5228 17.5198 22 11.997 22C6.47415 22 1.99699 17.5228 1.99699 12C1.99699 6.47715 6.47415 2 11.997 2C17.5198 2 21.997 6.47715 21.997 12ZM12.3553 9.38244C11.3827 9.787 9.43876 10.6243 6.52356 11.8944C6.05018 12.0827 5.8022 12.2669 5.77962 12.4469C5.74147 12.7513 6.12258 12.8711 6.64155 13.0343C6.71214 13.0565 6.78528 13.0795 6.86026 13.1038C7.37085 13.2698 8.05767 13.464 8.41472 13.4717C8.7386 13.4787 9.10009 13.3452 9.49918 13.0711C12.2229 11.2325 13.629 10.3032 13.7172 10.2831C13.7795 10.269 13.8658 10.2512 13.9243 10.3032C13.9828 10.3552 13.977 10.4536 13.9708 10.48C13.9331 10.641 12.4371 12.0318 11.6629 12.7515C11.4216 12.9759 11.2504 13.135 11.2154 13.1714C11.137 13.2528 11.0571 13.3298 10.9803 13.4038C10.506 13.8611 10.1502 14.204 11 14.764C11.4083 15.0331 11.7351 15.2556 12.0611 15.4776C12.4171 15.7201 12.7722 15.9619 13.2317 16.2631C13.3487 16.3398 13.4605 16.4195 13.5694 16.4971C13.9837 16.7925 14.3559 17.0579 14.8158 17.0155C15.083 16.991 15.359 16.7397 15.4992 15.9903C15.8305 14.2193 16.4817 10.382 16.6322 8.80081C16.6454 8.66228 16.6288 8.48498 16.6154 8.40715C16.6021 8.32932 16.5743 8.21842 16.4731 8.13633C16.3533 8.03911 16.1683 8.01861 16.0856 8.02C15.7095 8.0267 15.1324 8.22735 12.3553 9.38244Z" fill="currentColor" stroke="#29648A" />
    </g>


</svg>