<svg width="50" height="50" viewBox="0 0 50 50" fill="none" xmlns="http://www.w3.org/2000/svg">
    <g id="html">
        <path d="M6 28L4 3H28L26 28L16 31L6 28Z" fill="#E44D26"/>
        <path d="M26 5H16V29.5L24 27L26 5Z" fill="#F16529"/>
        <path d="M9.5 17.5L8.5 8H24L23.5 11H11.5L12 14.5H23L22 24L16 26L10 24L9.5 19H12.5L13 21.5L16 22.5L19 21.5L19.5 17.5H9.5Z"
              fill="white"/>
    </g>

    <g id="css">
        <path d="M6 28L4 3H28L26 28L16 31L6 28Z" fill="#1172B8"/>
        <path d="M26 5H16V29.5L24 27L26 5Z" fill="#33AADD"/>
        <path d="M19.5 17.5H9.5L9 14L17 11.5H9L8.5 8.5H24L23.5 12L17 14.5H23L22 24L16 26L10 24L9.5 19H12.5L13 21.5L16 22.5L19 21.5L19.5 17.5Z"
              fill="white"/>
    </g>

    <g id="js">
        <rect width="24" height="24" fill="#F1DC50"/>
        <path stroke="#333" stroke-width="2"
              d="M12,11 C12,15.749205 12,18.4158717 12,19 C12,19.8761925 11.4771235,21 10,21 C7.61461794,21 7.5,19 7.5,19 M20.7899648,13.51604 C20.1898831,12.5053467 19.3944074,12 18.4035378,12 C16.8563489,12 16,13 16,14 C16,15 16.5,16 18.5084196,16.5 C19.7864643,16.8181718 21,17.5 21,19 C21,20.5 19.6845401,21 18.5,21 C16.9861609,21 15.9861609,20.3333333 15.5,19"/>
    </g>

    <g id="ts">
        <rect x="0" y="0" width="28" height="28" rx="1" style="fill:#3178c6"/>
        <path d="M18.245,23.759v3.068a6.492,6.492,0,0,0,1.764.575,11.56,11.56,0,0,0,2.146.192,9.968,9.968,0,0,0,2.088-.211,5.11,5.11,0,0,0,1.735-.7,3.542,3.542,0,0,0,1.181-1.266,4.469,4.469,0,0,0,.186-3.394,3.409,3.409,0,0,0-.717-1.117,5.236,5.236,0,0,0-1.123-.877,12.027,12.027,0,0,0-1.477-.734q-.6-.249-1.08-.484a5.5,5.5,0,0,1-.813-.479,2.089,2.089,0,0,1-.516-.518,1.091,1.091,0,0,1-.181-.618,1.039,1.039,0,0,1,.162-.571,1.4,1.4,0,0,1,.459-.436,2.439,2.439,0,0,1,.726-.283,4.211,4.211,0,0,1,.956-.1,5.942,5.942,0,0,1,.808.058,6.292,6.292,0,0,1,.856.177,5.994,5.994,0,0,1,.836.3,4.657,4.657,0,0,1,.751.422V13.9a7.509,7.509,0,0,0-1.525-.4,12.426,12.426,0,0,0-1.9-.129,8.767,8.767,0,0,0-2.064.235,5.239,5.239,0,0,0-1.716.733,3.655,3.655,0,0,0-1.171,1.271,3.731,3.731,0,0,0-.431,1.845,3.588,3.588,0,0,0,.789,2.34,6,6,0,0,0,2.395,1.639q.63.26,1.175.509a6.458,6.458,0,0,1,.942.517,2.463,2.463,0,0,1,.626.585,1.2,1.2,0,0,1,.23.719,1.1,1.1,0,0,1-.144.552,1.269,1.269,0,0,1-.435.441,2.381,2.381,0,0,1-.726.292,4.377,4.377,0,0,1-1.018.105,5.773,5.773,0,0,1-1.969-.35A5.874,5.874,0,0,1,18.245,23.759Zm-5.154-7.638h4V13.594H5.938v2.527H9.92V27.375h3.171Z"
              style="fill:#ffffff;fill-rule:evenodd"/>
    </g>

    <g id="react">
        <path d="M18.6789 15.9759C18.6789 14.5415 17.4796 13.3785 16 13.3785C14.5206 13.3785 13.3211 14.5415 13.3211 15.9759C13.3211 17.4105 14.5206 18.5734 16 18.5734C17.4796 18.5734 18.6789 17.4105 18.6789 15.9759Z"
              fill="#53C1DE"/>
        <path fill-rule="evenodd" clip-rule="evenodd"
              d="M24.7004 11.1537C25.2661 8.92478 25.9772 4.79148 23.4704 3.39016C20.9753 1.99495 17.7284 4.66843 16.0139 6.27318C14.3044 4.68442 10.9663 2.02237 8.46163 3.42814C5.96751 4.82803 6.73664 8.8928 7.3149 11.1357C4.98831 11.7764 1 13.1564 1 15.9759C1 18.7874 4.98416 20.2888 7.29698 20.9289C6.71658 23.1842 5.98596 27.1909 8.48327 28.5877C10.9973 29.9932 14.325 27.3945 16.0554 25.7722C17.7809 27.3864 20.9966 30.0021 23.4922 28.6014C25.9956 27.1963 25.3436 23.1184 24.7653 20.8625C27.0073 20.221 31 18.7523 31 15.9759C31 13.1835 26.9903 11.7923 24.7004 11.1537ZM24.4162 19.667C24.0365 18.5016 23.524 17.2623 22.8971 15.9821C23.4955 14.7321 23.9881 13.5088 24.3572 12.3509C26.0359 12.8228 29.7185 13.9013 29.7185 15.9759C29.7185 18.07 26.1846 19.1587 24.4162 19.667ZM22.85 27.526C20.988 28.571 18.2221 26.0696 16.9478 24.8809C17.7932 23.9844 18.638 22.9422 19.4625 21.7849C20.9129 21.6602 22.283 21.4562 23.5256 21.1777C23.9326 22.7734 24.7202 26.4763 22.85 27.526ZM9.12362 27.5111C7.26143 26.47 8.11258 22.8946 8.53957 21.2333C9.76834 21.4969 11.1286 21.6865 12.5824 21.8008C13.4123 22.9332 14.2816 23.9741 15.1576 24.8857C14.0753 25.9008 10.9945 28.557 9.12362 27.5111ZM2.28149 15.9759C2.28149 13.874 5.94207 12.8033 7.65904 12.3326C8.03451 13.5165 8.52695 14.7544 9.12123 16.0062C8.51925 17.2766 8.01977 18.5341 7.64085 19.732C6.00369 19.2776 2.28149 18.0791 2.28149 15.9759ZM9.1037 4.50354C10.9735 3.45416 13.8747 6.00983 15.1159 7.16013C14.2444 8.06754 13.3831 9.1006 12.5603 10.2265C11.1494 10.3533 9.79875 10.5569 8.55709 10.8297C8.09125 9.02071 7.23592 5.55179 9.1037 4.50354ZM20.3793 11.5771C21.3365 11.6942 22.2536 11.85 23.1147 12.0406C22.8562 12.844 22.534 13.6841 22.1545 14.5453C21.6044 13.5333 21.0139 12.5416 20.3793 11.5771ZM16.0143 8.0481C16.6054 8.66897 17.1974 9.3623 17.7798 10.1145C16.5985 10.0603 15.4153 10.0601 14.234 10.1137C14.8169 9.36848 15.414 8.67618 16.0143 8.0481ZM9.8565 14.5444C9.48329 13.6862 9.16398 12.8424 8.90322 12.0275C9.75918 11.8418 10.672 11.69 11.623 11.5748C10.9866 12.5372 10.3971 13.5285 9.8565 14.5444ZM11.6503 20.4657C10.6679 20.3594 9.74126 20.2153 8.88556 20.0347C9.15044 19.2055 9.47678 18.3435 9.85796 17.4668C10.406 18.4933 11.0045 19.4942 11.6503 20.4657ZM16.0498 23.9915C15.4424 23.356 14.8365 22.6531 14.2448 21.8971C15.4328 21.9423 16.6231 21.9424 17.811 21.891C17.2268 22.6608 16.6369 23.3647 16.0498 23.9915ZM22.1667 17.4222C22.5677 18.3084 22.9057 19.1657 23.1742 19.9809C22.3043 20.1734 21.3652 20.3284 20.3757 20.4435C21.015 19.4607 21.6149 18.4536 22.1667 17.4222ZM18.7473 20.5941C16.9301 20.72 15.1016 20.7186 13.2838 20.6044C12.2509 19.1415 11.3314 17.603 10.5377 16.0058C11.3276 14.4119 12.2404 12.8764 13.2684 11.4158C15.0875 11.2825 16.9178 11.2821 18.7369 11.4166C19.7561 12.8771 20.6675 14.4086 21.4757 15.9881C20.6771 17.5812 19.7595 19.1198 18.7473 20.5941ZM22.8303 4.4666C24.7006 5.51254 23.8681 9.22726 23.4595 10.8426C22.2149 10.5641 20.8633 10.3569 19.4483 10.2281C18.6239 9.09004 17.7698 8.05518 16.9124 7.15949C18.1695 5.98441 20.9781 3.43089 22.8303 4.4666Z"
              fill="#53C1DE"/>
    </g>

    <g id="redux">
        <path d="M21.7868 21.556C22.8939 21.4433 23.7338 20.505 23.6956 19.3789C23.6575 18.253 22.703 17.3522 21.5577 17.3522H21.4814C20.2978 17.3897 19.3817 18.3656 19.4199 19.5291C19.4581 20.0921 19.6871 20.58 20.0307 20.9178C18.7327 23.4326 16.7475 25.2717 13.7698 26.8106C11.7464 27.8615 9.6468 28.2369 7.54715 27.9742C5.82918 27.749 4.49301 26.9984 3.65301 25.7596C2.43144 23.9205 2.31695 21.9312 3.34773 19.942C4.07312 18.5157 5.21828 17.4647 5.94367 16.9392C5.79098 16.4513 5.56187 15.6256 5.44738 15.0251C-0.0882044 18.9661 0.484491 24.2959 2.16426 26.8106C3.42402 28.6873 5.98187 29.8509 8.80691 29.8509C9.57039 29.8509 10.3339 29.7757 11.0975 29.5882C15.9841 28.6498 19.6872 25.7972 21.7868 21.556ZM28.5059 16.9018C25.6045 13.5613 21.3287 11.7222 16.4421 11.7222H15.8314C15.4878 11.0466 14.7624 10.5961 13.9607 10.5961H13.8843C12.7009 10.6337 11.7848 11.6095 11.8229 12.7731C11.8611 13.8991 12.8154 14.7999 13.9607 14.7999H14.037C14.8769 14.7624 15.6023 14.2369 15.9077 13.5237H16.5948C19.4963 13.5237 22.2449 14.3494 24.7265 15.9634C26.6352 17.202 28.0096 18.816 28.7731 20.7677C29.4221 22.3441 29.3839 23.883 28.6967 25.1967C27.6278 27.1859 25.8336 28.2744 23.4666 28.2744C21.9395 28.2744 20.4889 27.824 19.7253 27.4862C19.3054 27.8615 18.5418 28.462 18.0073 28.8375C19.649 29.5881 21.3287 30.001 22.9321 30.001C26.597 30.001 29.3076 28.0116 30.3384 26.0224C31.4454 23.8454 31.369 20.0921 28.5059 16.9018ZM9.1123 22.1939C9.15051 23.3199 10.1049 24.2206 11.2502 24.2206H11.3266C12.51 24.1832 13.4262 23.2073 13.388 22.0438C13.3499 20.9177 12.3954 20.017 11.2502 20.017H11.1739C11.0975 20.017 10.9829 20.017 10.9067 20.0544C9.3414 17.5022 8.69242 14.7248 8.92152 11.7221C9.0741 9.47006 9.83769 7.51828 11.1739 5.9043C12.2809 4.51555 14.4188 3.83996 15.8696 3.80252C19.9162 3.7274 21.634 8.68179 21.7486 10.6711C22.2449 10.7837 23.0848 11.0465 23.6575 11.2342C23.1993 5.15382 19.3817 2.00098 15.7169 2.00098C12.2809 2.00098 9.1123 4.44067 7.85242 8.04387C6.09637 12.8481 7.24164 17.4647 9.37949 21.1055C9.18871 21.3682 9.0741 21.7811 9.1123 22.194V22.1939Z"
              fill="#c5f87dd1"/>
    </g>

    <g id="redux-saga">
        <path fill="#89D96D"
              d="M35.259 14.782a2.591 2.591 0 0 1 3.891-2.243c2.348-.862 4.963-1.313 7.682-1.313 7.281 0 13.526 3.252 15.637 7.932-.018 1.108-1.592 1.624-2.22.944-1.731-3.759-7.199-6.465-13.417-6.465-2.26 0-4.429.345-6.393 1.004a2.592 2.592 0 1 1-5.18.141zm29.113 9.644a2.592 2.592 0 1 0-4.626 1.605c-.828 1.273-2.115 2.426-3.764 3.352-2.547 1.428-5.796 2.215-9.151 2.215-2.905 0-5.694-.575-8.068-1.665-1.604-.737-2.938-1.667-3.935-2.738-.661-.385-2.189.843-1.635 1.779 2.994 3.114 8.072 5.036 13.638 5.036 3.761 0 7.43-.896 10.331-2.524 2.126-1.193 3.776-2.738 4.814-4.476a2.594 2.594 0 0 0 2.396-2.584z"/>
        <path fill="#999"
              d="M14.435 29.29c-2.364-3.065-3.703-7.39-3.703-12.06 0-4.25 1.121-8.261 3.156-11.295C16.021 2.752 18.907 1 22.013 1c2.831 0 5.53 1.492 7.601 4.2 1.955 2.558 3.227 6.047 3.58 9.826a24.983 24.983 0 0 0-2.591-1.243C29.6 7.776 26.064 3.411 22.013 3.411c-2.277 0-4.452 1.373-6.124 3.867-1.771 2.641-2.747 6.176-2.747 9.953 0 4.152 1.227 8.094 3.31 10.724a2.592 2.592 0 1 1-2.017 1.335zm18.443-12.781c-4.232-2.444-8.954-3.414-12.862-2.732a2.592 2.592 0 1 0 .733 2.317c3.289-.486 7.282.4 10.923 2.503 4.447 2.567 7.592 6.552 8.207 10.247.767.32 1.604.594 2.51.807-.236-4.8-3.919-9.915-9.511-13.142zm.639 19.98c-2.334.297-4.982-.074-7.586-1.048-.748.578-1.54 1.12-2.372 1.621 2.766 1.27 5.664 1.937 8.352 1.937.651 0 1.291-.039 1.912-.118 3.219-.409 5.77-1.861 7.237-4.105a22.276 22.276 0 0 1-2.45-.745c-1.129 1.317-2.898 2.179-5.093 2.458zm-2.581-9.472a2.592 2.592 0 1 0-2.151-1.105c-.493 1.186-1.216 2.373-2.138 3.504-1.426 1.748-3.301 3.32-5.422 4.545-2.961 1.711-6.15 2.629-9.083 2.628-.306 0-.61-.01-.91-.03-2.996-.201-5.272-1.398-6.411-3.369-2.018-3.496-.006-8.754 4.686-12.621a24.79 24.79 0 0 1-.21-2.594l-.133-.185c-3.056 2.197-5.406 5.033-6.619 7.983-1.285 3.126-1.218 6.188.188 8.622 1.553 2.689 4.514 4.313 8.337 4.57.351.023.706.035 1.064.035 3.355 0 6.97-1.03 10.296-2.951 3.965-2.288 7.009-5.556 8.506-9.032z"/>
    </g>

    <g id="graph">
        <path fill="#E535AB"
              d="M14.3335126,2.85206923 L19.0436746,5.57156232 C19.1861408,5.42269933 19.3517561,5.29107777 19.5390336,5.18229987 C20.6054985,4.56924218 21.9657203,4.93324518 22.585164,5.99971013 C23.1982217,7.06617507 22.8342187,8.42639682 21.7677537,9.04584053 C21.5354003,9.17940894 21.2887997,9.26659782 21.038849,9.31024708 L21.038849,14.6900096 C21.2856344,14.7341019 21.5290274,14.8207365 21.7585099,14.9526546 C22.8303433,15.5715108 23.1940011,16.9304425 22.5751449,17.9958959 C21.9626686,19.0613494 20.597357,19.4250072 19.5319036,18.8125309 C19.2675499,18.6605671 19.046399,18.4622584 18.8726413,18.2336837 L14.2472483,20.9042339 C14.359389,21.1704807 14.4213527,21.4632106 14.4213527,21.770637 C14.4213527,22.997106 13.4248466,24 12.1919896,24 C10.9591327,24 9.96262662,23.0034939 9.96262662,21.770637 C9.96262662,21.5276826 10.001326,21.293907 10.0729072,21.0751276 L5.39448212,18.3739583 C5.24136397,18.5447862 5.05910975,18.6948998 4.84979559,18.8164775 C3.77694463,19.4295352 2.41672287,19.0655322 1.80366518,17.9990673 C1.19060749,16.9326023 1.55461049,15.5723806 2.62107544,14.9529369 C2.78345801,14.8595912 2.95265101,14.7888975 3.12500248,14.7398866 L3.12500248,9.26050018 C2.95045269,9.21143227 2.77917162,9.14021295 2.61500295,9.04584053 C1.548538,8.43278284 1.184535,7.06617507 1.79759269,5.99971013 C2.41065038,4.93324518 3.77725815,4.56924218 4.8437231,5.18229987 C4.99574654,5.27060092 5.13349582,5.37395472 5.25617553,5.48936462 L10.0208088,2.73842163 C9.98274768,2.57496174 9.96262662,2.40454853 9.96262662,2.22936302 C9.96262662,0.996506107 10.9591327,4.6629367e-14 12.1919896,4.6629367e-14 C13.4248466,4.6629367e-14 14.4213527,0.996506107 14.4213527,2.22936302 C14.4213527,2.44556708 14.3907061,2.6545024 14.3335126,2.85206923 Z M13.8405544,3.73141097 C13.7908242,3.78597435 13.7384158,3.8380524 13.6835353,3.88743909 L19.9624322,14.7624885 C19.9851165,14.7552188 20.0079142,14.7483109 20.0308156,14.7417672 L20.0308156,9.25474103 C19.4969015,9.10015188 19.0200076,8.74749468 18.7216233,8.22843028 C18.396599,7.66302338 18.3462063,7.01504748 18.5295247,6.43866863 L13.8405544,3.73141097 Z M10.5612952,3.75078761 C10.5290822,3.71626947 10.4979547,3.6807246 10.4679668,3.64420691 L5.81568405,6.33028239 C6.04182311,6.93281226 6.00669953,7.62728911 5.66113335,8.22843028 C5.32249418,8.81752134 4.75393127,9.19227671 4.13303588,9.30641503 L4.13303588,14.6916383 C4.16637437,14.6977154 4.19956458,14.7045461 4.23257942,14.7121233 L10.5612952,3.75078761 Z M12.8009687,4.3748119 C12.60746,4.42948073 12.403193,4.45872604 12.1919896,4.45872604 C11.9129003,4.45872604 11.645923,4.40765895 11.3998763,4.31434325 L5.14116232,15.1544358 C5.34676617,15.3211714 5.52618301,15.5275552 5.66720584,15.7703471 C5.76055152,15.9327297 5.83124515,16.1019227 5.8802561,16.2742741 L18.5020915,16.2742741 C18.5510684,16.101457 18.6218024,15.9318817 18.7152686,15.7692896 C18.8216025,15.5843129 18.950628,15.4204894 19.0968364,15.2792547 L12.8009687,4.3748119 Z M13.7498392,20.1747099 L18.4885766,17.4387184 C18.4752977,17.3870257 18.4638585,17.3348529 18.454287,17.2823075 L5.92850441,17.2823075 C5.91572246,17.3524283 5.89960649,17.4218931 5.88022341,17.4904498 L10.5957921,20.2130645 C11.0004395,19.7984186 11.5657199,19.541274 12.1919896,19.541274 C12.7987163,19.541274 13.3482006,19.7826203 13.7498392,20.1747099 Z"/>
    </g>

    <g id="figma">
        <path fill="#1ABCFE"
              d="M8.55 8c0-1.289 1.019-2.333 2.275-2.333C12.082 5.667 13.1 6.71 13.1 8c0 1.289-1.018 2.333-2.275 2.333C9.57 10.333 8.55 9.29 8.55 8z"/>
        <path fill="#0ACF83"
              d="M4 12.667c0-1.289 1.019-2.334 2.275-2.334H8.55v2.334C8.55 13.955 7.531 15 6.275 15S4 13.955 4 12.667z"/>
        <path fill="#FF7262"
              d="M8.55 1v4.667h2.275c1.257 0 2.275-1.045 2.275-2.334C13.1 2.045 12.082 1 10.825 1H8.55z"/>
        <path fill="#F24E1E" d="M4 3.333c0 1.289 1.019 2.334 2.275 2.334H8.55V1H6.275C5.019 1 4 2.045 4 3.333z"/>
        <path fill="#A259FF" d="M4 8c0 1.289 1.019 2.333 2.275 2.333H8.55V5.667H6.275C5.019 5.667 4 6.71 4 8z"/>
    </g>

    <g id="git">
        <path d="M2.58536 17.4132C1.80488 16.6327 1.80488 15.3673 2.58536 14.5868L14.5868 2.58536C15.3673 1.80488 16.6327 1.80488 17.4132 2.58536L29.4146 14.5868C30.1951 15.3673 30.1951 16.6327 29.4146 17.4132L17.4132 29.4146C16.6327 30.1951 15.3673 30.1951 14.5868 29.4146L2.58536 17.4132Z"
              fill="#EE513B"/>
        <path d="M12.1489 5.06152L10.9336 6.27686L14.0725 9.41577C13.9455 9.68819 13.8746 9.99201 13.8746 10.3124C13.8746 11.222 14.4461 11.9981 15.2496 12.3012V19.9798C14.4461 20.2829 13.8746 21.059 13.8746 21.9686C13.8746 23.1422 14.826 24.0936 15.9996 24.0936C17.1732 24.0936 18.1246 23.1422 18.1246 21.9686C18.1246 21.144 17.6549 20.429 16.9684 20.0768V12.3117L19.9689 15.3122C19.8481 15.5791 19.7809 15.8754 19.7809 16.1874C19.7809 17.361 20.7323 18.3124 21.9059 18.3124C23.0795 18.3124 24.0309 17.361 24.0309 16.1874C24.0309 15.0138 23.0795 14.0624 21.9059 14.0624C21.6778 14.0624 21.4582 14.0983 21.2522 14.1648L18.0297 10.9423C18.0914 10.7433 18.1246 10.5317 18.1246 10.3124C18.1246 9.13878 17.1732 8.18738 15.9996 8.18738C15.7803 8.18738 15.5688 8.22061 15.3697 8.2823L12.1489 5.06152Z"
              fill="white"/>
    </g>

    <g id="swift">
        <path fill="#F05138"
              d="M-145.9 373.3v-3.2c-.1-2.3-.2-4.7-.6-7-.4-2.3-1.1-4.5-2.2-6.6-1.1-2.1-2.4-4-4.1-5.6-1.7-1.7-3.6-3-5.6-4.1-2.1-1.1-4.3-1.8-6.6-2.2-2.3-.4-4.6-.6-7-.6h-53.7c-.6 0-1.2 0-1.7.1-1.7.1-3.5.2-5.2.5-1.7.3-3.4.8-5 1.4-.5.2-1.1.5-1.6.7-1.6.8-3 1.8-4.4 2.9-.4.4-.9.8-1.3 1.2-1.7 1.7-3 3.6-4.1 5.6-1.1 2.1-1.8 4.3-2.2 6.6-.4 2.3-.5 4.6-.6 7v53.7c.1 2.3.2 4.7.6 7 .4 2.3 1.1 4.5 2.2 6.6 1.1 2.1 2.4 4 4.1 5.6 1.7 1.7 3.6 3 5.6 4.1 2.1 1.1 4.3 1.8 6.6 2.2 2.3.4 4.6.6 7 .6h53.7c2.3-.1 4.7-.2 7-.6 2.3-.4 4.5-1.1 6.6-2.2 2.1-1.1 4-2.4 5.6-4.1 1.7-1.7 3-3.6 4.1-5.6 1.1-2.1 1.8-4.3 2.2-6.6.4-2.3.6-4.6.6-7v-3.2V377v-3.7z"/>
        <path fill="#FFF"
              d="M-168 409.4l.3-1.2c4.4-17.5-6.3-38.3-24.5-49.2 8 10.8 11.5 23.9 8.4 35.3-.3 1-.6 2-1 3-.4-.3-.9-.6-1.6-.9 0 0-18.1-11.2-37.7-30.9-.5-.5 10.5 15.7 22.9 28.8-5.9-3.3-22.2-15.2-32.6-24.6 1.3 2.1 2.8 4.2 4.4 6.1 8.6 11 19.9 24.5 33.4 34.9-9.5 5.8-22.9 6.3-36.2 0-3.3-1.5-6.4-3.4-9.3-5.5 5.6 9 14.3 16.8 24.9 21.4 12.6 5.4 25.2 5.1 34.5.1 0 0 .1 0 .1-.1.4-.2.8-.5 1.2-.7 4.5-2.3 13.3-4.6 18.1 4.6 1.4 2.1 3.9-9.9-5.3-21.1z"/>
    </g>

    <g id="github">
        <path d="M2247 4995 c-1043 -126 -1913 -881 -2167 -1880 -59 -234 -74 -356
-74 -610 -1 -129 5 -259 13 -315 108 -783 536 -1431 1212 -1841 206 -124 479
-239 570 -239 45 0 55 4 85 34 22 22 34 44 35 63 2 40 -3 448 -4 449 -1 1 -42
-5 -92 -13 -108 -17 -273 -12 -360 12 -115 30 -202 79 -279 158 -64 63 -81 90
-144 217 -83 169 -138 244 -230 308 -142 100 -165 144 -87 171 31 10 54 11
103 3 136 -22 259 -109 355 -251 120 -178 219 -247 389 -271 78 -11 185 1 285
31 71 22 71 22 98 131 18 70 67 163 111 209 l25 26 -63 7 c-103 12 -293 55
-386 88 -168 59 -276 123 -395 237 -222 212 -326 520 -314 931 4 141 9 178 31
255 36 121 88 223 164 323 48 64 60 86 53 100 -21 40 -41 168 -41 261 0 107
18 219 50 317 25 73 38 78 145 63 136 -19 330 -99 506 -209 71 -45 80 -48 111
-39 84 24 309 59 450 69 228 17 538 -10 737 -64 l54 -15 91 56 c175 108 358
183 495 203 108 15 117 10 145 -79 13 -42 29 -111 36 -154 17 -103 8 -293 -17
-372 l-19 -60 46 -56 c150 -187 212 -376 211 -645 -1 -671 -304 -1054 -930
-1179 -64 -12 -142 -26 -174 -30 l-58 -7 35 -38 c43 -48 88 -135 112 -216 15
-51 18 -122 23 -504 5 -334 9 -451 19 -467 17 -31 63 -53 108 -53 93 0 453
163 659 297 165 109 299 219 435 359 385 395 615 869 691 1424 20 144 17 507
-5 655 -172 1140 -1081 2015 -2234 2150 -154 18 -464 18 -615 0z"/>
    </g>

    <g id="star">
        <polygon style="fill:#c5f87dd1;" points="26.934,1.318 35.256,18.182 53.867,20.887 40.4,34.013 43.579,52.549 26.934,43.798
	10.288,52.549 13.467,34.013 0,20.887 18.611,18.182 "/>
    </g>

    <g id="storybook">
        <path fill-rule="evenodd" clip-rule="evenodd"
              d="M11.438 55.604L9.70196 9.37595C9.64729 7.84929 10.8206 6.55729 12.3446 6.46395L43.1553 4.53729L45.5086 5.33329L48.5686 4.19862L51.6566 4.00529C53.2073 3.90662 54.5446 5.08395 54.6446 6.63462C54.6486 6.69462 54.65 6.75595 54.65 6.81729V57.1866C54.6486 58.7426 53.386 60.0026 51.83 60.0013C51.7886 60.0013 51.7473 60 51.7073 59.9986L14.126 58.3106C12.662 58.2453 11.494 57.0693 11.438 55.604Z"
              fill="#FF4081"/>
        <path fill-rule="evenodd" clip-rule="evenodd"
              d="M48.566 4.19873L43.1566 4.53473L42.894 10.8827C42.8846 11.1147 43.0646 11.3094 43.2966 11.3201C43.394 11.3241 43.4886 11.2947 43.566 11.2361L46.03 9.3654L48.1126 11.0067C48.294 11.1507 48.5593 11.1201 48.702 10.9387C48.7633 10.8601 48.7953 10.7627 48.7926 10.6627L48.5686 4.20006L48.566 4.19873ZM44.3553 25.4507C43.3673 26.2201 35.986 26.7441 35.986 25.6494C36.1433 21.4694 34.2726 21.2867 33.2313 21.2867C32.246 21.2867 30.582 21.5841 30.582 23.8241C30.582 26.1054 33.0126 27.3934 35.866 28.9054C39.918 31.0534 44.826 33.6547 44.826 40.1947C44.826 46.4667 39.73 49.9281 33.234 49.9281C26.5286 49.9281 20.6673 47.2147 21.3286 37.8094C21.5886 36.7067 30.1153 36.9694 30.1153 37.8094C30.0086 41.6907 30.894 42.8321 33.1286 42.8321C34.8446 42.8321 35.6233 41.8854 35.6233 40.2947C35.6233 37.8841 33.0926 36.4614 30.178 34.8267C26.2326 32.6121 21.59 30.0054 21.59 24.0214C21.59 18.0521 25.6953 14.0707 33.0246 14.0707C40.354 14.0707 44.3553 17.9921 44.3553 25.4507Z"
              fill="white"/>
    </g>

    <g id="placeholder">
        <path style="fill:#464866;" d="M38.853,5.324L38.853,5.324c-7.098-7.098-18.607-7.098-25.706,0h0
	C6.751,11.72,6.031,23.763,11.459,31L26,52l14.541-21C45.969,23.763,45.249,11.72,38.853,5.324z M26.177,24c-3.314,0-6-2.686-6-6
	s2.686-6,6-6s6,2.686,6,6S29.491,24,26.177,24z"/>
    </g>



        <g id="testimonial" transform="translate(0.000000,512.000000) scale(0.100000,-0.100000)"
           fill="#c5f87dd1" stroke="none">
            <path d="M3035 5114 c-16 -2 -66 -9 -110 -15 -190 -24 -392 -88 -580 -181
-197 -97 -464 -298 -500 -375 -48 -100 32 -223 145 -223 53 0 93 24 205 121
184 160 454 284 728 336 126 23 417 24 542 1 341 -64 625 -214 865 -457 172
-175 295 -371 374 -600 66 -190 80 -279 80 -516 0 -178 -3 -225 -22 -311 -26
-121 -62 -232 -108 -337 -19 -43 -34 -92 -34 -110 0 -18 31 -205 70 -416 38
-212 68 -386 67 -388 -2 -1 -79 11 -172 28 -184 33 -217 33 -265 -8 -85 -71
-80 -188 11 -255 36 -27 611 -134 665 -123 51 9 110 68 119 119 6 28 -15 163
-82 526 l-89 487 29 69 c39 95 91 279 113 399 23 126 26 489 6 605 -57 319
-165 582 -342 833 -81 115 -296 333 -415 420 -243 179 -517 296 -815 348 -110
20 -410 34 -485 23z"/>
            <path d="M1875 4150 c-490 -55 -915 -259 -1260 -605 -584 -586 -765 -1463
-458 -2228 l35 -88 -97 -533 c-73 -397 -96 -544 -90 -572 9 -51 68 -110 119
-119 28 -6 175 18 571 90 l534 97 88 -35 c267 -107 548 -155 843 -144 541 21
1018 231 1400 617 485 489 693 1182 559 1857 -124 627 -533 1163 -1104 1450
-197 99 -402 166 -615 199 -116 18 -416 26 -525 14z m505 -335 c362 -64 690
-236 948 -496 315 -319 488 -715 509 -1164 31 -691 -362 -1346 -991 -1650
-444 -215 -964 -233 -1411 -49 -182 75 -125 77 -624 -15 -245 -44 -446 -79
-448 -78 -2 2 33 201 78 443 91 497 90 448 15 629 -216 526 -152 1141 169
1620 290 433 743 711 1265 775 106 13 378 4 490 -15z"/>
            <path d="M1014 2332 c-221 -79 -284 -358 -117 -526 120 -122 328 -122 448 0
62 64 90 134 90 229 0 90 -19 141 -80 213 -75 87 -227 125 -341 84z"/>
            <path d="M1974 2332 c-221 -79 -284 -358 -117 -526 120 -122 328 -122 448 0
62 64 90 134 90 229 0 90 -19 141 -80 213 -75 87 -227 125 -341 84z"/>
            <path d="M2934 2332 c-221 -79 -284 -358 -117 -526 120 -122 328 -122 448 0
62 64 90 134 90 229 0 90 -19 141 -80 213 -75 87 -227 125 -341 84z"/>
        </g>



</svg>